<?xml version="1.0" standalone="no"?><!DOCTYPE svg PUBLIC "-//W3C//DTD SVG 1.1//EN" "http://www.w3.org/Graphics/SVG/1.1/DTD/svg11.dtd"><svg t="1756779122013" class="icon" viewBox="0 0 1024 1024" version="1.1" xmlns="http://www.w3.org/2000/svg" p-id="5973" width="128" height="128" xmlns:xlink="http://www.w3.org/1999/xlink"><path d="M976.96 704L602.56 531.2a53.12 53.12 0 0 0-74.24 74.24l170.24 375.68c16.64 35.84 39.04 42.88 53.12 42.88 13.44 0 37.76-8.96 50.56-48.64l28.8-79.36a113.92 113.92 0 0 1 60.8-64l79.36-26.88c39.68-13.44 46.72-37.76 47.36-50.56s-3.2-35.84-41.6-50.56z m-105.6 72.32A175.36 175.36 0 0 0 772.8 874.24l-21.12 64-154.24-339.2 339.2 154.24zM484.8 960H68.8V64h640v352a32 32 0 0 0 64 0V64a64 64 0 0 0-64-64H68.8a64 64 0 0 0-64 64v896a64 64 0 0 0 64 64h416a32 32 0 0 0 0-64z m128-768h-448a32 32 0 0 0 0 64h448a32 32 0 0 0 0-64z m0 192h-448a32 32 0 0 0 0 64h448a32 32 0 0 0 0-64z" fill="#2c2c2c" p-id="5974"></path></svg>