<?xml version="1.0" standalone="no"?><!DOCTYPE svg PUBLIC "-//W3C//DTD SVG 1.1//EN" "http://www.w3.org/Graphics/SVG/1.1/DTD/svg11.dtd"><svg t="1756779353686" class="icon" viewBox="0 0 1024 1024" version="1.1" xmlns="http://www.w3.org/2000/svg" p-id="7191" width="128" height="128" xmlns:xlink="http://www.w3.org/1999/xlink"><path d="M1014.644364 903.354182l-32.302546-32.302546a215.970909 215.970909 0 0 0-86.481454-324.514909V209.966545c0-39.610182-23.412364-76.613818-64-108.171636C753.384727 40.820364 610.816 0 447.860364 0c-162.909091 0-305.477818 40.773818-383.860364 101.794909C23.412364 133.352727 0 170.356364 0 209.92v475.834182c0 115.991273 200.564364 209.92 447.860364 209.92 67.723636 0 131.770182-6.981818 189.253818-19.549091a215.505455 215.505455 0 0 0 170.682182 83.549091 215.179636 215.179636 0 0 0 129.536-43.147637l32.116363 32.069819c6.190545 6.283636 14.429091 9.402182 22.574546 9.402181a32.023273 32.023273 0 0 0 22.574545-54.690909zM158.347636 119.482182c36.491636-17.128727 79.406545-30.626909 127.674182-40.215273a829.672727 829.672727 0 0 1 161.838546-15.266909c56.32 0 110.778182 5.12 161.885091 15.266909 48.267636 9.588364 91.182545 23.086545 127.674181 40.215273 58.181818 27.275636 94.347636 61.952 94.347637 90.484363 0 28.485818-36.165818 63.301818-94.347637 90.437819-36.491636 17.128727-79.406545 30.626909-127.674181 40.215272-51.106909 10.193455-105.565091 15.266909-161.885091 15.266909-56.273455 0-110.778182-5.12-161.838546-15.266909-48.267636-9.588364-91.182545-23.086545-127.674182-40.215272-58.181818-27.182545-94.347636-61.905455-94.347636-90.437819 0-28.625455 36.165818-63.301818 94.347636-90.484363zM64 318.091636c78.382545 60.974545 220.904727 101.794909 383.860364 101.794909 162.955636 0 305.524364-40.773818 383.906909-101.794909v47.802182c0 28.578909-36.165818 63.301818-94.347637 90.484364-36.491636 17.082182-79.406545 30.580364-127.674181 40.168727-51.106909 10.24-105.565091 15.313455-161.885091 15.313455-56.273455 0-110.778182-5.12-161.838546-15.313455-48.267636-9.588364-91.182545-23.086545-127.674182-40.168727-58.181818-27.182545-94.347636-61.905455-94.347636-90.484364V318.091636zM447.860364 831.767273c-56.273455 0-110.778182-5.12-161.838546-15.266909-48.267636-9.634909-91.182545-23.133091-127.674182-40.215273-58.181818-27.182545-94.347636-61.905455-94.347636-90.484364v-51.758545c78.382545 60.974545 220.904727 101.748364 383.860364 101.748363 50.734545 0 99.374545-4.002909 144.756363-11.170909a214.202182 214.202182 0 0 0 12.101818 92.858182c-49.664 9.495273-102.353455 14.289455-156.858181 14.289455z m162.397091-175.336728l-0.512 0.093091c-51.106909 10.24-105.565091 15.313455-161.885091 15.313455-56.273455 0-110.778182-5.12-161.838546-15.313455-48.267636-9.588364-91.182545-23.086545-127.674182-40.168727-58.181818-27.229091-94.347636-61.905455-94.347636-90.484364v-51.80509c78.382545 60.974545 220.904727 101.794909 383.860364 101.794909 162.955636 0 305.524364-40.820364 383.906909-101.794909v51.80509c0 1.070545-0.093091 2.187636-0.186182 3.258182a216.110545 216.110545 0 0 0-221.323636 127.255273z m305.012363 194.839273a150.993455 150.993455 0 0 1-107.52 44.497455 150.621091 150.621091 0 0 1-107.426909-44.590546 151.458909 151.458909 0 0 1-40.96-140.148363 151.086545 151.086545 0 0 1 49.338182-82.385455 151.365818 151.365818 0 0 1 99.141818-36.770909 150.760727 150.760727 0 0 1 107.52 44.450909c28.578909 28.718545 44.357818 66.885818 44.357818 107.52 0 40.541091-15.778909 78.754909-44.450909 107.426909z" fill="#2c2c2c" p-id="7192"></path></svg>