<?xml version="1.0" standalone="no"?><!DOCTYPE svg PUBLIC "-//W3C//DTD SVG 1.1//EN" "http://www.w3.org/Graphics/SVG/1.1/DTD/svg11.dtd"><svg t="1756779478185" class="icon" viewBox="0 0 1024 1024" version="1.1" xmlns="http://www.w3.org/2000/svg" p-id="9221" width="128" height="128" xmlns:xlink="http://www.w3.org/1999/xlink"><path d="M792.149333 158.293333H230.826667c-48 0-87.04 39.04-87.04 87.04v397.397334c0 48 39.04 87.082667 87.04 87.082666h244.821333v64.341334H337.109333a35.84 35.84 0 1 0 0 71.68h204.629334a35.84 35.84 0 0 0 5.589333-71.125334v-65.493333a35.712 35.712 0 0 0-5.589333-71.125333H230.826667a15.36 15.36 0 0 1-15.402667-15.36V245.333333a15.36 15.36 0 0 1 15.402667-15.36h561.322666a15.36 15.36 0 0 1 15.36 15.36v283.904a35.84 35.84 0 1 0 71.68 0V245.333333c0-48-39.04-87.04-87.04-87.04" fill="#2c2c2c" p-id="9222"></path><path d="M437.845333 447.786667l19.84-47.573334 19.882667 47.573334h-39.68z m126.549334 21.973333v-0.128L498.346667 311.466667a43.818667 43.818667 0 0 0-40.661334-26.88c-17.877333 0-33.834667 10.581333-40.618666 26.837333l-66.005334 158.165333s0 0.085333-0.085333 0.128l-27.434667 65.706667a35.84 35.84 0 1 0 66.133334 27.648l18.218666-43.648h99.584l18.218667 43.648a35.797333 35.797333 0 1 0 66.133333-27.648l-27.434666-65.706667zM645.845333 284.8a35.84 35.84 0 0 0-35.84 35.84v228.608a35.84 35.84 0 0 0 71.68 0V320.64a35.84 35.84 0 0 0-35.84-35.84" fill="#2c2c2c" p-id="9223"></path><path d="M852.181333 623.829333h-32.384c-23.253333 0-44.373333 11.648-54.4 18.218667a11.178667 11.178667 0 0 1-12.330666 0c-10.069333-6.570667-31.146667-18.218667-54.442667-18.218667h-32.341333a28.245333 28.245333 0 0 0-28.288 28.245334v155.306666c0 15.573333 12.672 28.202667 28.288 28.202667h32.341333c23.253333 0 44.373333 11.690667 54.442667 18.261333 3.754667 2.432 8.533333 2.432 12.373333 0 9.984-6.570667 31.146667-18.261333 54.357333-18.261333h32.426667a28.202667 28.202667 0 0 0 28.16-28.245333v-155.264a28.202667 28.202667 0 0 0-28.16-28.245334" fill="#2c2c2c" p-id="9224"></path></svg>