<?xml version="1.0" standalone="no"?><!DOCTYPE svg PUBLIC "-//W3C//DTD SVG 1.1//EN" "http://www.w3.org/Graphics/SVG/1.1/DTD/svg11.dtd"><svg t="1756780547425" class="icon" viewBox="0 0 1024 1024" version="1.1" xmlns="http://www.w3.org/2000/svg" p-id="10838" width="128" height="128" xmlns:xlink="http://www.w3.org/1999/xlink"><path d="M281.045333 590.933333l-5.290666 16.256a32 32 0 1 1-60.842667-19.712l11.093333-34.389333a31.701333 31.701333 0 0 1 2.56-7.936L277.162667 395.52a32 32 0 0 1 30.421333-22.144h46.250667a32 32 0 0 1 30.421333 22.144l62.208 192a32 32 0 0 1-60.842667 19.712l-5.290666-16.256H281.045333z m20.736-64h57.770667l-28.885333-89.173333-28.885334 89.173333zM490.666667 405.333333a32 32 0 0 1 32-32H597.333333a85.333333 85.333333 0 0 1 0 170.666667h-42.666666V597.333333a32 32 0 0 1-64 0V405.333333z m64 32v42.666667h42.666666a21.248 21.248 0 0 0 21.333334-21.333333 21.333333 21.333333 0 0 0-21.333334-21.333334h-42.666666z" p-id="10839" fill="#2c2c2c"></path><path d="M757.333333 373.333333a32 32 0 0 1 32 32V597.333333a32 32 0 0 1-64 0V405.333333a32 32 0 0 1 32-32z" p-id="10840" fill="#2c2c2c"></path><path d="M298.666667 96A245.333333 245.333333 0 0 0 53.333333 341.333333v341.333334A245.333333 245.333333 0 0 0 298.666667 928h426.666666A245.333333 245.333333 0 0 0 970.666667 682.666667V341.333333A245.333333 245.333333 0 0 0 725.333333 96H298.666667zM117.333333 341.333333A181.333333 181.333333 0 0 1 298.666667 160h426.666666A181.333333 181.333333 0 0 1 906.666667 341.333333v341.333334A181.333333 181.333333 0 0 1 725.333333 864H298.666667A181.333333 181.333333 0 0 1 117.333333 682.666667V341.333333z" p-id="10841" fill="#2c2c2c"></path></svg>