<?xml version="1.0" encoding="UTF-8"?>
<svg version="1.1" xmlns="http://www.w3.org/2000/svg" width="200" height="200">
<path d="M0 0 C2.47167969 1.16064453 2.47167969 1.16064453 4.921875 2.6328125 C5.85112793 3.18380615 6.78038086 3.7347998 7.73779297 4.30249023 C8.73182129 4.90391846 9.72584961 5.50534668 10.75 6.125 C12.91360121 7.41093269 15.07768002 8.6960621 17.2421875 9.98046875 C18.35819336 10.6461084 19.47419922 11.31174805 20.62402344 11.99755859 C26.01253058 15.19372113 31.44351239 18.31512627 36.875 21.4375 C39.0352486 22.68213139 41.19540409 23.9269244 43.35546875 25.171875 C44.978479 26.10676758 44.978479 26.10676758 46.63427734 27.06054688 C50.1489325 29.08582038 53.66255469 31.11287479 57.17578125 33.140625 C57.76593018 33.48122452 58.3560791 33.82182404 58.96411133 34.17274475 C61.79692756 35.80769907 64.62969 37.44274655 67.46240234 39.07788086 C72.63541404 42.06287833 77.81129233 45.04236324 83 48 C83 48.66 83 49.32 83 50 C82.42894531 50.32049316 81.85789063 50.64098633 81.26953125 50.97119141 C69.24482875 57.7267228 57.27216507 64.56097538 45.37304688 71.53540039 C39.77985784 74.80883151 34.17245591 78.05514065 28.54296875 81.265625 C27.91401199 81.62432175 27.28505524 81.98301849 26.63703918 82.35258484 C23.57260459 84.09909749 20.50653557 85.84268441 17.4387207 87.58325195 C12.67195788 90.29495368 7.93119649 93.0065105 3.3125 95.96484375 C0 98 0 98 -2 98 C-2 98.66 -2 99.32 -2 100 C-0.95948486 100.38502686 -0.95948486 100.38502686 0.10205078 100.77783203 C3.35198655 102.14844521 6.30993207 103.79523499 9.3671875 105.5546875 C9.96500031 105.89750763 10.56281311 106.24032776 11.17874146 106.59353638 C13.07926201 107.68431491 14.97716509 108.77955675 16.875 109.875 C18.14175442 110.60316505 19.40868001 111.33103239 20.67578125 112.05859375 C23.02304636 113.40685023 25.369088 114.7571505 27.71435547 116.10888672 C28.79861816 116.7329541 29.88288086 117.35702148 31 118 C31.59202209 118.38367737 32.18404419 118.76735474 32.79400635 119.16265869 C35.49121953 120.86122102 37.37322575 122.01682891 40.60961914 121.92993164 C43.33233392 120.87071189 45.73465214 119.61741198 48.24609375 118.12109375 C49.24237793 117.53279785 50.23866211 116.94450195 51.26513672 116.33837891 C52.83545654 115.39744385 52.83545654 115.39744385 54.4375 114.4375 C56.59486437 113.16244276 58.75241573 111.88770184 60.91015625 110.61328125 C61.95316895 109.99404785 62.99618164 109.37481445 64.07080078 108.73681641 C67.82599832 106.51023903 71.59306221 104.3057953 75.375 102.125 C76.96441406 101.20074219 76.96441406 101.20074219 78.5859375 100.2578125 C81 99 81 99 83 99 C83 115.83 83 132.66 83 150 C79.7 151.85625 76.4 153.7125 73 155.625 C63.7408709 160.84763945 54.54025248 166.16303085 45.36865234 171.53759766 C36.15739543 176.92762338 26.89294884 182.22212402 17.61450195 187.49536133 C16.50679443 188.12595459 15.39908691 188.75654785 14.2578125 189.40625 C13.19594727 190.00695312 12.13408203 190.60765625 11.04003906 191.2265625 C9.05620192 192.38385394 7.09749689 193.58567685 5.17089844 194.8359375 C3.87587402 195.67511719 3.87587402 195.67511719 2.5546875 196.53125 C1.81460449 197.03205078 1.07452148 197.53285156 0.31201172 198.04882812 C-2.85867719 199.3532636 -4.72111665 198.88817435 -8 198 C-10.47167969 196.83935547 -10.47167969 196.83935547 -12.921875 195.3671875 C-13.85112793 194.81619385 -14.78038086 194.2652002 -15.73779297 193.69750977 C-16.73182129 193.09608154 -17.72584961 192.49465332 -18.75 191.875 C-20.91360121 190.58906731 -23.07768002 189.3039379 -25.2421875 188.01953125 C-26.35819336 187.3538916 -27.47419922 186.68825195 -28.62402344 186.00244141 C-34.01253058 182.80627887 -39.44351239 179.68487373 -44.875 176.5625 C-47.0352486 175.31786861 -49.19540409 174.0730756 -51.35546875 172.828125 C-52.978479 171.89323242 -52.978479 171.89323242 -54.63427734 170.93945312 C-58.1489325 168.91417962 -61.66255469 166.88712521 -65.17578125 164.859375 C-65.76593018 164.51877548 -66.3560791 164.17817596 -66.96411133 163.82725525 C-69.79692756 162.19230093 -72.62969 160.55725345 -75.46240234 158.92211914 C-76.47898926 158.33551514 -77.49557617 157.74891113 -78.54296875 157.14453125 C-79.43008545 156.63253174 -80.31720215 156.12053223 -81.23120117 155.59301758 C-84.48352348 153.72180666 -87.74217509 151.86161423 -91 150 C-91 116.34 -91 82.68 -91 48 C-83.41 43.71 -75.82 39.42 -68 35 C-64.09643445 32.74028749 -60.19851097 30.4764489 -56.3125 28.1875 C-46.12441712 22.21405353 -35.88205911 16.34001889 -25.61450195 10.50463867 C-24.50679443 9.87404541 -23.39908691 9.24345215 -22.2578125 8.59375 C-21.19594727 7.99304687 -20.13408203 7.39234375 -19.04003906 6.7734375 C-17.05620192 5.61614606 -15.09749689 4.41432315 -13.17089844 3.1640625 C-12.30754883 2.60460937 -11.44419922 2.04515625 -10.5546875 1.46875 C-9.81460449 0.96794922 -9.07452148 0.46714844 -8.31201172 -0.04882812 C-5.14132281 -1.3532636 -3.27888335 -0.88817435 0 0 Z " fill="#7347FE" transform="translate(104,1)"/>
<path d="M0 0 C2.82777789 0.97516208 5.19073345 2.21468896 7.76147461 3.74633789 C8.75751709 4.33471436 9.75355957 4.92309082 10.77978516 5.52929688 C11.82690674 6.15650635 12.87402832 6.78371582 13.95288086 7.42993164 C15.02513916 8.06165283 16.09739746 8.69337402 17.20214844 9.34423828 C21.82954853 12.07053158 26.44275085 14.81797001 31.03100586 17.60961914 C31.66594971 17.98916748 32.30089355 18.36871582 32.95507812 18.75976562 C34.57952592 19.7311668 36.19436685 20.71858407 37.80834961 21.70727539 C41.06968024 23.10498852 42.15020315 22.8198171 45.51538086 21.86743164 C48.12442237 20.60501415 48.12442237 20.60501415 50.76147461 18.98852539 C52.25590088 18.10608154 52.25590088 18.10608154 53.78051758 17.20581055 C55.3508374 16.26487549 55.3508374 16.26487549 56.95288086 15.30493164 C59.11024523 14.0298744 61.26779659 12.75513348 63.42553711 11.48071289 C64.4685498 10.86147949 65.5115625 10.24224609 66.58618164 9.60424805 C70.34137918 7.37767067 74.10844307 5.17322694 77.89038086 2.99243164 C78.94999023 2.37625977 80.00959961 1.76008789 81.10131836 1.12524414 C83.51538086 -0.13256836 83.51538086 -0.13256836 85.51538086 -0.13256836 C85.51538086 16.69743164 85.51538086 33.52743164 85.51538086 50.86743164 C82.21538086 52.72368164 78.91538086 54.57993164 75.51538086 56.49243164 C66.25625175 61.71507109 57.05563334 67.03046249 47.8840332 72.4050293 C38.67277629 77.79505502 29.4083297 83.08955566 20.12988281 88.36279297 C19.02217529 88.99338623 17.91446777 89.62397949 16.77319336 90.27368164 C15.71132812 90.87438477 14.64946289 91.47508789 13.55541992 92.09399414 C11.57158278 93.25128558 9.61287775 94.45310849 7.6862793 95.70336914 C6.82292969 96.26282227 5.95958008 96.82227539 5.07006836 97.39868164 C4.32998535 97.89948242 3.58990234 98.4002832 2.82739258 98.91625977 C-0.34329633 100.22069525 -2.20573579 99.75560599 -5.48461914 98.86743164 C-7.95629883 97.70678711 -7.95629883 97.70678711 -10.40649414 96.23461914 C-11.33574707 95.68362549 -12.265 95.13263184 -13.22241211 94.56494141 C-14.21644043 93.96351318 -15.21046875 93.36208496 -16.23461914 92.74243164 C-18.39822036 91.45649895 -20.56229916 90.17136954 -22.72680664 88.88696289 C-23.8428125 88.22132324 -24.95881836 87.55568359 -26.10864258 86.86987305 C-31.49714972 83.67371051 -36.92813153 80.55230537 -42.35961914 77.42993164 C-44.51986774 76.18530025 -46.68002323 74.94050724 -48.84008789 73.69555664 C-50.46309814 72.76066406 -50.46309814 72.76066406 -52.11889648 71.80688477 C-55.63355165 69.78161126 -59.14717383 67.75455685 -62.66040039 65.72680664 C-63.25054932 65.38620712 -63.84069824 65.0456076 -64.44873047 64.69468689 C-67.2815467 63.05973257 -70.11430914 61.4246851 -72.94702148 59.78955078 C-78.12003318 56.80455331 -83.29591147 53.8250684 -88.48461914 50.86743164 C-86.08492233 48.21177377 -83.52017725 46.58744611 -80.41821289 44.82055664 C-79.38889648 44.23081055 -78.35958008 43.64106445 -77.29907227 43.03344727 C-75.62748047 42.08501953 -75.62748047 42.08501953 -73.92211914 41.11743164 C-72.75060453 40.44801817 -71.57938538 39.77808738 -70.40844727 39.10766602 C-67.9751808 37.71503168 -65.54065682 36.32463417 -63.10522461 34.93579102 C-57.55304346 31.76713412 -52.01978785 28.56567953 -46.48461914 25.36743164 C-44.34539433 24.13288663 -42.20607075 22.89851274 -40.06665039 21.66430664 C-38.99753418 21.04749023 -37.92841797 20.43067383 -36.8269043 19.79516602 C-33.90866591 18.11200967 -30.99007769 16.4294633 -28.07125854 14.74731445 C-25.68035317 13.36936226 -23.28963243 11.99108992 -20.89892578 10.61279297 C-19.21477951 9.64202182 -17.53036683 8.6717129 -15.84594727 7.70141602 C-14.31164062 6.81679687 -14.31164062 6.81679687 -12.74633789 5.91430664 C-11.84874756 5.39707031 -10.95115723 4.87983398 -10.02636719 4.34692383 C-7.44507858 2.89048252 -7.44507858 2.89048252 -4.96826172 1.11450195 C-2.48461914 -0.13256836 -2.48461914 -0.13256836 0 0 Z " fill="#00EAD2" transform="translate(101.484619140625,100.132568359375)"/>
<path d="M0 0 C3.06504318 1.19253126 5.72799494 2.548873 8.55273438 4.22509766 C10.04256836 5.10270752 10.04256836 5.10270752 11.5625 5.99804688 C12.60083984 6.61695801 13.63917969 7.23586914 14.70898438 7.87353516 C16.85454437 9.13962348 19.00037674 10.40525035 21.14648438 11.67041016 C22.70109375 12.58983398 22.70109375 12.58983398 24.28710938 13.52783203 C28.07599312 15.75911985 31.88645379 17.950523 35.70898438 20.12353516 C36.79179687 20.73970703 37.87460938 21.35587891 38.99023438 21.99072266 C39.72242188 22.40580078 40.45460937 22.82087891 41.20898438 23.24853516 C41.20898438 23.90853516 41.20898438 24.56853516 41.20898438 25.24853516 C40.63792969 25.56902832 40.066875 25.88952148 39.47851562 26.21972656 C27.4523755 32.97606562 15.47883556 39.81201845 3.57763672 46.78613281 C-5.6336202 52.17615853 -14.89806678 57.47065918 -24.17651367 62.74389648 C-25.28422119 63.37448975 -26.39192871 64.00508301 -27.53320312 64.65478516 C-28.5937793 65.25548828 -29.65435547 65.85619141 -30.74707031 66.47509766 C-34.43834179 68.62567481 -38.02162166 70.92886175 -41.57666016 73.29736328 C-44.49036497 74.54893924 -45.79675799 74.23469511 -48.79101562 73.24853516 C-50.72159195 72.28505837 -52.61431559 71.24391115 -54.47460938 70.15087891 C-55.5614502 69.51738525 -56.64829102 68.8838916 -57.76806641 68.23120117 C-58.9216144 67.54958902 -60.0750964 66.86786519 -61.22851562 66.18603516 C-62.40240381 65.49902364 -63.57672146 64.81274542 -64.75146484 64.12719727 C-67.05496396 62.78220799 -69.35637247 61.43386124 -71.65673828 60.08349609 C-75.5607073 57.79791959 -79.48341881 55.54688308 -83.41601562 53.31103516 C-85.01316406 52.4003125 -85.01316406 52.4003125 -86.64257812 51.47119141 C-87.3515625 51.06771484 -88.06054688 50.66423828 -88.79101562 50.24853516 C-85.86472314 47.07412702 -82.94756073 44.99508486 -79.18945312 42.88525391 C-77.51471924 41.93767212 -77.51471924 41.93767212 -75.80615234 40.97094727 C-74.59277796 40.29263513 -73.37939893 39.61433132 -72.16601562 38.93603516 C-70.90402789 38.22399056 -69.64247829 37.51116895 -68.38134766 36.79760742 C-66.43697898 35.69760252 -64.49234903 34.59809087 -62.5463562 33.5009613 C-56.22822461 29.93862101 -49.94444611 26.31784643 -43.66601562 22.68603516 C-41.54885107 21.46333918 -39.43166346 20.24068311 -37.31445312 19.01806641 C-35.13994642 17.76160365 -32.96546827 16.50509147 -30.79101562 15.24853516 C-26.54192294 12.79334606 -22.2924941 10.33874059 -18.0425415 7.88504028 C-16.32414676 6.89266837 -14.6061611 5.89958819 -12.88818359 4.90649414 C-11.3396167 4.01232788 -11.3396167 4.01232788 -9.75976562 3.10009766 C-8.38981445 2.30853271 -8.38981445 2.30853271 -6.9921875 1.50097656 C-2.95562019 -0.79578367 -2.95562019 -0.79578367 0 0 Z " fill="#AA9AFE" transform="translate(145.791015625,25.75146484375)"/>
<path d="M0 0 C2.08181519 1.1672795 4.16918152 2.32470858 6.26171875 3.47265625 C8.40400637 4.66862524 10.54593091 5.86524484 12.6875 7.0625 C13.76322266 7.66126953 14.83894531 8.26003906 15.94726562 8.87695312 C21.73103241 12.11062065 27.41773393 15.42923972 33 19 C28.99347202 22.43861236 24.80712099 24.89004043 20.1875 27.375 C12.9298127 31.34285503 5.75890233 35.43884993 -1.375 39.625 C-11.66740862 45.66006753 -22.0114013 51.59936368 -32.38427734 57.49462891 C-33.4923877 58.12546387 -34.60049805 58.75629883 -35.7421875 59.40625 C-36.80405273 60.00695312 -37.86591797 60.60765625 -38.95996094 61.2265625 C-40.94379808 62.38385394 -42.90250311 63.58567685 -44.82910156 64.8359375 C-45.69245117 65.39539063 -46.55580078 65.95484375 -47.4453125 66.53125 C-48.18539551 67.03205078 -48.92547852 67.53285156 -49.68798828 68.04882812 C-52.86824418 69.35719951 -54.71018741 68.89829992 -58 68 C-60.64624023 66.74414063 -60.64624023 66.74414063 -63.30859375 65.15625 C-64.29666016 64.57311035 -65.28472656 63.9899707 -66.30273438 63.38916016 C-67.33720703 62.7657373 -68.37167969 62.14231445 -69.4375 61.5 C-70.49904297 60.87013184 -71.56058594 60.24026367 -72.65429688 59.59130859 C-75.77512458 57.73671836 -78.8882689 55.86980191 -82 54 C-83.63640935 53.02291913 -85.27309427 52.04629952 -86.91015625 51.0703125 C-90.28013907 49.05782878 -93.64278116 47.03369987 -97 45 C-94.16001025 41.93057061 -91.40137415 39.90081258 -87.73828125 37.8984375 C-86.19732788 37.0477771 -86.19732788 37.0477771 -84.62524414 36.17993164 C-82.98543579 35.28649048 -82.98543579 35.28649048 -81.3125 34.375 C-79.02527436 33.11206571 -76.73881647 31.84774001 -74.453125 30.58203125 C-73.34001953 29.96666504 -72.22691406 29.35129883 -71.08007812 28.71728516 C-67.20537981 26.55696271 -63.37518301 24.33002272 -59.5625 22.0625 C-51.21826934 17.10941813 -42.83238278 12.2286412 -34.39648438 7.43310547 C-29.70671346 4.76181306 -25.05843395 2.11030909 -20.609375 -0.94921875 C-19.99215576 -1.35769043 -19.37493652 -1.76616211 -18.73901367 -2.18701172 C-17.21093939 -3.21284869 -15.71474616 -4.28577478 -14.22265625 -5.36328125 C-8.63785263 -6.46670306 -4.64739938 -2.87125641 0 0 Z " fill="#00CFCA" transform="translate(154,131)"/>
<path d="M0 0 C15.66415684 8.54408555 31.19364744 17.23714674 46.58984375 26.25390625 C53.39797091 30.2389709 60.22816464 34.1851215 67.0625 38.125 C68.15046875 38.75237061 69.2384375 39.37974121 70.359375 40.02612305 C75.56724088 43.0274253 80.77843303 46.02259585 86 49 C86 49.66 86 50.32 86 51 C85.27748047 51.41137207 84.55496094 51.82274414 83.81054688 52.24658203 C71.17547637 59.44410246 58.54843334 66.65209771 46 74 C37.60625952 78.91214061 29.19010708 83.78341446 20.74951172 88.61450195 C19.51416856 89.32163053 18.27913481 90.02929997 17.04443359 90.73754883 C15.31968895 91.72652525 13.59346326 92.71291735 11.8671875 93.69921875 C10.87831543 94.26471436 9.88944336 94.83020996 8.87060547 95.4128418 C5.95741116 97.02354738 2.97739128 98.51130436 0 100 C0 67 0 34 0 0 Z " fill="#0423DB" transform="translate(13,50)"/>
<path d="M0 0 C3.77485262 1.50994105 7.02263008 3.0357543 10.53515625 5.01171875 C11.59283203 5.60533203 12.65050781 6.19894531 13.74023438 6.81054688 C15.38475586 7.73963867 15.38475586 7.73963867 17.0625 8.6875 C18.13177734 9.28755859 19.20105469 9.88761719 20.30273438 10.50585938 C23.54082289 12.32740645 26.77040322 14.16344857 30 16 C31.14968262 16.64275879 32.29936523 17.28551758 33.48388672 17.94775391 C34.58104004 18.56956543 35.67819336 19.19137695 36.80859375 19.83203125 C37.80560303 20.39253174 38.8026123 20.95303223 39.82983398 21.53051758 C40.54598877 22.01544678 41.26214355 22.50037598 42 23 C42 23.66 42 24.32 42 25 C41.21463867 25.44802979 40.42927734 25.89605957 39.62011719 26.35766602 C36.64524653 28.05512564 33.67067451 29.75310642 30.69628906 31.45141602 C29.42036264 32.17980803 28.14432491 32.90800511 26.86816406 33.63598633 C25.01075825 34.69558515 23.15378168 35.755933 21.296875 36.81640625 C20.68598022 37.16474518 20.07508545 37.51308411 19.44567871 37.87197876 C16.4405543 39.58911431 13.4461902 41.3212928 10.47070312 43.08935547 C9.39240234 43.7288916 8.31410156 44.36842773 7.203125 45.02734375 C6.24567383 45.600896 5.28822266 46.17444824 4.30175781 46.76538086 C2 48 2 48 0 48 C0 32.16 0 16.32 0 0 Z " fill="#1C54E3" transform="translate(57,76)"/>
</svg>
