<?xml version="1.0" standalone="no"?><!DOCTYPE svg PUBLIC "-//W3C//DTD SVG 1.1//EN" "http://www.w3.org/Graphics/SVG/1.1/DTD/svg11.dtd"><svg t="1753407260728" class="icon" viewBox="0 0 1024 1024" version="1.1" xmlns="http://www.w3.org/2000/svg" p-id="5513" xmlns:xlink="http://www.w3.org/1999/xlink" width="512" height="512"><path d="M301.977038 627.766255S436.825911 683.493292 436.825911 956.190708h110.015814s27.722771-234.607745 173.998545-328.424453" fill="#FFBF00" p-id="5514"></path><path d="M534.007353 1006.406618H468.463209c-30.361779 0-54.979318-24.617539-54.979318-54.979318s24.617539-54.979318 54.979318-54.979318h65.539746c30.361779 0 54.979318 24.617539 54.979318 54.979318s-24.613141 54.979318-54.97492 54.979318z" fill="#666666" p-id="5515"></path><path d="M511.404256 349.786425m-348.036676 0a348.036676 348.036676 0 1 0 696.073352 0 348.036676 348.036676 0 1 0-696.073352 0Z" fill="#FFBF00" p-id="5516"></path><path d="M610.230679 831.902263H401.639147c-30.361779 0-54.979318-24.617539-54.979318-54.979318s24.617539-54.979318 54.979318-54.979318h208.591532c30.361779 0 54.979318 24.617539 54.979318 54.979318s-24.617539 54.979318-54.979318 54.979318z" fill="#D69351" p-id="5517"></path><path d="M610.230679 933.605205H401.639147c-30.361779 0-54.979318-24.617539-54.979318-54.979318s24.617539-54.979318 54.979318-54.979318h208.591532c30.361779 0 54.979318 24.617539 54.979318 54.979318s-24.617539 54.979318-54.979318 54.979318z" fill="#B57D44" p-id="5518"></path><path d="M317.111745 341.491146c-1.974857 0-3.967308-0.10556-5.977352-0.321079-30.190243-3.267971-52.014833-30.38377-48.75126-60.569615 5.546314-51.284708 48.465368-153.612214 171.201197-173.809417 29.965927-4.952537 58.247289 15.359022 63.177834 45.320552S481.403142 210.358875 451.441613 215.28942c-30.845597 5.075691-52.775747 19.291143-67.030785 43.455653-10.089804 17.100767-12.684828 33.528587-12.702421 33.673733-3.048053 28.180199-26.887086 49.07234-54.596662 49.07234z" fill="#FFFFFF" p-id="5519"></path></svg>