<?xml version="1.0" standalone="no"?><!DOCTYPE svg PUBLIC "-//W3C//DTD SVG 1.1//EN" "http://www.w3.org/Graphics/SVG/1.1/DTD/svg11.dtd"><svg t="1763624339535" class="icon" viewBox="0 0 1152 1024" version="1.1" xmlns="http://www.w3.org/2000/svg" p-id="19777" width="144" height="128" xmlns:xlink="http://www.w3.org/1999/xlink"><path d="M430.144 0H109.888C49.28 0 0 50.176 0 112v800.064C0 973.888 49.28 1024 109.888 1024h933.568a109.44 109.44 0 0 0 78.336-35.392c20.48-22.016 31.296-51.52 30.08-81.792V235.136c-0.384-62.08-49.664-112.32-110.592-112.704l-435.072 4.48a35.584 35.584 0 0 1-27.264-12.672L513.664 39.616A106.752 106.752 0 0 0 430.848 0h-0.64zM82.24 111.488a27.904 27.904 0 0 1 27.648-27.648h321.344a25.472 25.472 0 0 1 19.2 9.28l0.896 1.152L517.184 169.6l0.768 0.96c22.656 25.792 55.104 40.448 89.216 40.064l434.496-4.416a29.44 29.44 0 0 1 27.904 28.992v137.664H82.24V111.488z m0 800.64v-453.12h987.328v449.536l0.192 2.24a29.568 29.568 0 0 1-8.128 20.8 28.16 28.16 0 0 1-19.2 8.576H109.44a27.904 27.904 0 0 1-27.2-28.096z" p-id="19778"></path></svg>