<?xml version="1.0" standalone="no"?><!DOCTYPE svg PUBLIC "-//W3C//DTD SVG 1.1//EN" "http://www.w3.org/Graphics/SVG/1.1/DTD/svg11.dtd"><svg t="1756276463289" class="icon" viewBox="0 0 1024 1024" version="1.1" xmlns="http://www.w3.org/2000/svg" p-id="30225" data-spm-anchor-id="a313x.search_index.0.i28.f4943a81tZugEm" width="128" height="128" xmlns:xlink="http://www.w3.org/1999/xlink"><path d="M736 336zM336 736h-0.01 0.02-0.01zM688 736h0.01-0.01zM736 688z" fill="#23be6b" p-id="30226"></path><path d="M512 64C264.58 64 64 264.58 64 512s200.58 448 448 448 448-200.57 448-448S759.42 64 512 64z m220.62 346.18L472.4 670.39a40 40 0 0 1-56.57 0L291.38 545.94a40 40 0 0 1 0-56.57 40 40 0 0 1 56.57 0l96.17 96.17 231.93-231.93a40 40 0 0 1 56.57 0 40 40 0 0 1 0 56.57z" fill="#23be6b" p-id="30227" data-spm-anchor-id="a313x.search_index.0.i29.f4943a81tZugEm" class="selected"></path><path d="M732.62 353.61a40 40 0 0 0-56.57 0L444.12 585.54 348 489.37a40 40 0 0 0-56.57 0 40 40 0 0 0 0 56.57l124.4 124.45a40 40 0 0 0 56.57 0l260.22-260.21a40 40 0 0 0 0-56.57z" fill="#ffffff" p-id="30228" data-spm-anchor-id="a313x.search_index.0.i27.f4943a81tZugEm" class="selected"></path></svg>