<?xml version="1.0" standalone="no"?><!DOCTYPE svg PUBLIC "-//W3C//DTD SVG 1.1//EN" "http://www.w3.org/Graphics/SVG/1.1/DTD/svg11.dtd"><svg t="1765159401603" class="icon" viewBox="0 0 1024 1024" version="1.1" xmlns="http://www.w3.org/2000/svg" p-id="2053" width="128" height="128" xmlns:xlink="http://www.w3.org/1999/xlink"><path d="M36.352 213.504c0 97.792 178.176 177.152 398.336 177.152s398.336-79.36 398.336-177.152S654.848 36.352 434.688 36.352C215.04 36.352 36.352 115.712 36.352 213.504z" p-id="2054"></path><path d="M987.648 794.112v-55.296l-65.536-11.776c-4.096-15.36-10.24-30.208-18.432-44.032l37.888-53.76-37.888-39.424-54.272 39.424c-13.312-8.192-28.16-14.848-43.52-18.432l-11.776-65.024h-55.296l-11.776 65.536c-15.36 3.584-30.208 9.216-44.032 16.896l-53.76-37.888-39.424 39.424 37.888 53.76c-8.192 13.312-14.848 28.16-18.432 44.032l-64 11.264v55.296l64.512 11.776c3.584 15.36 10.24 30.208 18.432 43.52l-37.888 54.272 39.424 39.424 53.76-37.888c13.824 7.68 28.672 13.312 44.032 16.896l11.264 66.048h55.296l11.776-65.536c15.36-4.096 30.208-10.24 43.52-18.432l54.272 39.424 39.424-39.424-39.424-54.272c8.192-13.312 14.848-28.16 18.432-43.52l65.536-12.288z m-220.672 49.664c-42.496 0-77.312-34.304-77.824-76.8 0-42.496 34.304-77.312 76.8-77.824 42.496 0 77.312 34.304 77.824 76.8v0.512c0 42.496-34.816 77.312-76.8 77.312z m-332.288-268.288c37.888 0 75.264-2.048 112.64-7.168l29.696-29.696c13.824-13.824 32.256-22.016 52.224-22.016 13.312 0 26.624 3.584 37.888 10.24 8.704-32.256 37.888-55.296 71.68-55.296h57.344c22.016-18.432 35.328-45.056 36.864-73.728V262.144c0 97.792-178.176 177.152-398.336 177.152S36.352 359.936 36.352 262.144v135.68c0 98.304 178.176 177.664 398.336 177.664z" p-id="2055"></path><path d="M517.632 620.032c-26.624 2.56-54.272 3.584-82.944 3.584-220.16 0-398.336-79.36-398.336-177.152v135.68c0 97.792 178.176 177.152 398.336 177.152 12.288 0 24.576 0 36.864-1.024v-19.456c0-33.792 22.528-62.976 55.296-71.68-8.192-13.824-11.264-30.72-9.216-47.104z" p-id="2056"></path><path d="M472.576 807.936h-37.888c-220.16 0-398.336-79.36-398.336-177.152v135.68c0 97.792 178.176 177.152 398.336 177.152 30.72 0 61.44-1.536 92.16-4.608-13.312-23.04-13.312-50.688 0-73.728-27.648-6.656-48.64-29.184-54.272-57.344z" p-id="2057"></path></svg>