<?xml version="1.0" standalone="no"?><!DOCTYPE svg PUBLIC "-//W3C//DTD SVG 1.1//EN" "http://www.w3.org/Graphics/SVG/1.1/DTD/svg11.dtd"><svg t="1757989319151" class="icon" viewBox="0 0 1024 1024" version="1.1" xmlns="http://www.w3.org/2000/svg" p-id="14906" width="128" height="128" xmlns:xlink="http://www.w3.org/1999/xlink"><path d="M297.856 30.4C363.968 17.472 435.84 11.072 513.472 11.072s149.504 6.464 215.68 19.328c66.048 12.864 118.336 30.336 156.736 52.352 38.464 22.016 57.664 45.952 57.664 71.68v71.68c0 25.728-19.264 49.664-57.664 71.68-38.464 22.016-90.688 39.488-156.736 52.352-66.112 12.864-137.984 19.328-215.68 19.328s-149.504-6.464-215.616-19.328c-66.048-12.864-118.336-30.336-156.736-52.416-38.464-22.016-57.664-45.888-57.664-71.68v-71.68c0-25.728 19.2-49.664 57.664-71.68 38.4-21.952 90.688-39.424 156.736-52.288z m-32.448 386.624c76.928 16.064 159.616 24.064 248.064 24.064s171.2-8 248.064-24.064c76.928-16 137.536-39.744 182.016-71.104v95.168c0 25.728-19.264 49.664-57.664 71.68s-90.688 39.488-156.736 52.352c-66.112 12.864-137.984 19.328-215.68 19.328s-149.504-6.464-215.616-19.264c-66.048-12.864-118.336-30.336-156.8-52.352-38.464-22.016-57.664-45.952-57.664-71.68V345.92c44.48 31.36 105.088 55.104 182.016 71.104z m0 215.04c76.928 16.064 159.616 24.064 248.064 24.064s171.2-8 248.064-24.064c76.928-16.064 137.536-39.744 182.016-71.104v95.168c0 25.792-19.264 49.664-57.664 71.68-38.464 22.08-90.688 39.488-156.736 52.352-66.112 12.864-137.984 19.328-215.68 19.328s-149.504-6.464-215.616-19.328c-66.048-12.864-118.336-30.336-156.8-52.352-38.464-22.016-57.664-45.888-57.664-71.68V560.96c44.48 31.36 105.088 55.04 182.016 71.104z m0 215.04c76.928 16.064 159.616 24.064 248.064 24.064s171.2-8 248.064-24.064c76.928-16.064 137.536-39.744 182.016-71.104v95.168c0 25.728-19.264 49.6-57.664 71.68-38.464 22.016-90.688 39.488-156.736 52.352-66.112 12.864-137.984 19.328-215.68 19.328s-149.504-6.464-215.616-19.328c-66.048-12.864-118.336-30.4-156.8-52.352-38.464-22.08-57.664-45.952-57.664-71.68v-95.168c44.48 31.36 105.088 55.04 182.016 71.104z" fill="#1014d7" p-id="14907"></path></svg>