<?xml version="1.0" standalone="no"?><!DOCTYPE svg PUBLIC "-//W3C//DTD SVG 1.1//EN" "http://www.w3.org/Graphics/SVG/1.1/DTD/svg11.dtd"><svg t="1765164057698" class="icon" viewBox="0 0 1024 1024" version="1.1" xmlns="http://www.w3.org/2000/svg" p-id="5267" width="128" height="128" xmlns:xlink="http://www.w3.org/1999/xlink"><path d="M905.847161 0C971.099008 0 1024 52.899683 1024 118.152839v630.558772c0 65.253156-52.899683 118.152839-118.152839 118.152839H118.152839C52.900992 866.86445 0 813.964767 0 748.711611V118.152839C0 52.900992 52.899683 0 118.152839 0h787.694322z m0 78.769432H118.152839c-21.532808 0-39.031161 17.282292-39.383407 38.733913v631.206957c0 21.534118 17.282292 39.032471 38.733913 39.384716h788.342507c21.534118 0 39.032471-17.282292 39.384716-38.733913V118.155458c0-21.534118-17.282292-39.032471-38.733913-39.384716h-0.650803zM866.86445 945.432225c21.696491 0 39.283887 17.587396 39.283888 39.283888 0 21.696491-17.587396 39.283887-39.283888 39.283887H157.13555c-21.696491 0-39.283887-17.587396-39.283888-39.283887 0-21.696491 17.587396-39.283887 39.283888-39.283888h709.7289z" fill="#979797" p-id="5268"></path><path d="M415.810783 316.945023l-0.034046 0.032737a39.442332 39.442332 0 0 1 9.697882-7.093361c14.857166-7.741545 33.609985-5.391059 46.100951 7.052767l111.464103 111.369821 139.292808-139.174956c15.247386-15.18846 39.823386-15.340358 55.256716-0.455693l0.481882 0.471406c15.255243 15.197627 15.418926 39.79065 0.502834 55.210885l-0.457003 0.464859c-0.007857 0.007857-0.015714 0.015714-0.045831 0L612.434496 510.323887c-0.467478 0.519857-0.95198 1.031857-1.453504 1.532072-0.006547 0.007857-0.014404 0.015714-0.045831 0l-0.015713 0.015714a39.499949 39.499949 0 0 1-8.431632 6.407202l-0.776512 0.426885c-14.762885 7.960225-33.530107 5.837586-46.158567-6.367919l-0.447837-0.441289a39.909811 39.909811 0 0 1-1.800511-1.915744l-109.608594-109.51824-139.40935 139.295427c-15.247386 15.18846-39.823386 15.340358-55.256716 0.455693l-0.481882-0.471407c-15.255243-15.197627-15.418926-39.79065-0.502834-55.210885l0.457002-0.464859c0.007857-0.007857 0.015714-0.015714 0.045832 0l166.767959-166.629156 0.235703-0.242251 0.239632-0.24225c0.005238-0.003928 0.010476-0.009166 0.019642-0.007857zM276.426312 511.886077l0.017023 0.005238 0.005238 0.006547-0.022261-0.011785z m473.750588-194.887366L583.038363 483.982731l-1.000429-0.966383 0.85115 0.969002 0.02619 0.02488c0.017023 0.017023 0.052379 0.026189 0.078567 0.030118h0.02488l0.072021-0.040594 0.447836-0.447836 0.310343-0.343079L750.191304 317.002639l-0.015713-0.003928z" fill="#979797" p-id="5269"></path></svg>