<?xml version="1.0" standalone="no"?><!DOCTYPE svg PUBLIC "-//W3C//DTD SVG 1.1//EN" "http://www.w3.org/Graphics/SVG/1.1/DTD/svg11.dtd"><svg t="1753865450007" class="icon" viewBox="0 0 1024 1024" version="1.1" xmlns="http://www.w3.org/2000/svg" p-id="2760" width="512" height="512" xmlns:xlink="http://www.w3.org/1999/xlink"><path d="M601.6 837.12h-179.2c-14.848 0-26.112 14.336-20.992 29.696 3.072 9.216 12.288 14.848 22.016 14.848h0.512c12.8 0 24.576 7.168 30.72 18.944v0.512c7.68 15.36 23.552 25.6 40.96 25.6h32.768c17.408 0 33.28-9.728 40.96-25.6v-0.512c5.632-11.776 17.408-18.944 30.72-18.944h0.512c9.728 0 18.944-5.632 22.016-14.848 4.608-15.36-6.656-29.696-20.992-29.696zM287.744 282.624c11.776-14.848 24.576-28.16 38.4-40.448L256.512 173.056c-10.752-10.752-28.672-10.752-39.424 0-10.752 10.752-10.752 28.672 0 39.424l70.656 70.144zM512 171.52h1.024c9.216 0 17.92 0.512 27.136 1.536V78.848c0-15.36-12.288-27.648-27.648-27.648-15.36 0-27.648 12.288-27.648 27.648v94.208c8.704-1.024 17.92-1.536 27.136-1.536z m224.768 111.104l70.144-70.144c10.752-10.752 10.752-28.672 0-39.424-10.752-10.752-28.672-10.752-39.424 0l-69.12 69.12c13.824 12.288 26.624 26.112 38.4 40.448zM219.136 479.744c0-13.312 1.024-26.624 2.56-39.424H122.88c-15.36 0-27.648 12.288-27.648 27.648 0 15.36 12.288 27.648 27.648 27.648h96.768c-0.512-5.12-0.512-10.24-0.512-15.872zM901.12 440.32h-98.816c1.536 12.8 2.56 26.112 2.56 39.424 0 5.632 0 10.752-0.512 15.872H901.12c15.36 0 27.648-12.288 27.648-27.648 0-15.36-12.288-27.648-27.648-27.648z m-149.504 227.84c-11.264 16.384-23.04 30.72-34.816 44.032l50.688 50.688c10.752 10.752 28.672 10.752 39.424 0 10.752-10.752 10.752-28.672 0-39.424l-55.296-55.296zM217.6 723.456c-10.752 10.752-10.752 28.672 0 39.424 10.752 10.752 28.672 10.752 39.424 0l50.688-50.688c-11.264-12.8-23.552-27.136-34.816-44.032l-55.296 55.296z m321.536-497.152z m-53.76 0z m39.424 772.096M738.816 409.6c-26.624-100.352-118.272-174.08-226.816-174.08-108.544 0-200.192 73.728-226.816 174.08h453.632zM277.504 470.016c0 50.688 15.36 87.552 35.84 118.784h397.312c20.48-31.232 35.84-68.096 35.84-118.784 0-11.776-1.024-23.552-2.56-34.816H280.064c-1.536 11.264-2.56 23.04-2.56 34.816zM692.224 614.4H331.776c37.376 47.104 81.408 87.04 89.088 157.696-11.776 0.512-20.992 10.24-20.992 22.016 0 12.288 10.24 22.528 22.528 22.528h178.688c12.288 0 22.528-10.24 22.528-22.528 0-11.776-9.216-21.504-20.992-22.016 7.68-70.656 52.224-110.592 89.6-157.696z" fill="#EFEFEF" p-id="2761"></path></svg>