<?xml version="1.0" encoding="UTF-8"?>
<svg version="1.1" xmlns="http://www.w3.org/2000/svg" width="200" height="200">
<path d="M0 0 C9.21483261 8.64002824 13.79379965 19.42219158 14.3125 31.9375 C14.6338201 37.46420574 15.44153852 40.71773865 18.72265625 45.12109375 C21.18366918 48.74111583 23 53.58719846 23 58 C23.639375 58.226875 24.27875 58.45375 24.9375 58.6875 C29.13320261 60.48565826 33.03900556 62.73904021 37 65 C36.31620454 68.95008059 35.21156817 71.63457018 33 75 C29.62537285 74.45276317 27.91765 73.9451 25 72 C24.78085938 72.95519531 24.56171875 73.91039062 24.3359375 74.89453125 C20.38446411 91.30752451 13.46639184 102.71146972 -1 112 C-8.46368715 116 -8.46368715 116 -13 116 C-13 118.64 -13 121.28 -13 124 C-24.88 124 -36.76 124 -49 124 C-49 114 -49 114 -48 113 C-48.70125 112.59910156 -49.4025 112.19820313 -50.125 111.78515625 C-62.30407189 104.48764171 -70.41663754 94.8147327 -74.3125 80.9375 C-75.1791666 75.973864 -75.64906112 71.02396709 -76 66 C-77.12019531 66.66128906 -78.24039063 67.32257813 -79.39453125 68.00390625 C-80.86687815 68.85730477 -82.33955148 69.71014028 -83.8125 70.5625 C-84.91948242 71.21895508 -84.91948242 71.21895508 -86.04882812 71.88867188 C-86.76103516 72.29794922 -87.47324219 72.70722656 -88.20703125 73.12890625 C-88.8616333 73.51119385 -89.51623535 73.89348145 -90.19067383 74.28735352 C-92 75 -92 75 -95 74 C-96.16796875 72.15234375 -96.16796875 72.15234375 -97.1875 69.9375 C-97.53167969 69.20402344 -97.87585938 68.47054687 -98.23046875 67.71484375 C-98.48441406 67.14894531 -98.73835938 66.58304687 -99 66 C-83.01030928 55 -83.01030928 55 -79 55 C-78.01 56.98 -77.02 58.96 -76 61 C-73.55436987 55.24557618 -73.94630363 50.98680123 -75.52807617 45.00195312 C-78.24669672 33.4692638 -76.23464135 20.50387224 -70.4921875 10.328125 C-63.51449097 -0.38182781 -54.45803841 -7.4912365 -42.0546875 -10.78125 C-26.34879514 -13.89782394 -12.26256601 -10.25024749 0 0 Z M-57.8125 11.75 C-64.15379918 19.52177829 -65.67470889 27.14175342 -65 37 C-64.030625 36.13375 -63.06125 35.2675 -62.0625 34.375 C-48.41655246 22.73338681 -35.986705 19.12423651 -18.32617188 19.80322266 C-13.20416335 20.23650759 -8.69108139 22.02556636 -4 24 C-2.00449995 24.68001764 -0.00549306 25.35004459 2 26 C1.60194436 18.23791498 -3.31889179 12.30754285 -8.8125 7.1875 C-24.36928656 -5.51131631 -44.34475789 -2.3740092 -57.8125 11.75 Z " fill="#D1D8FE" transform="translate(130,59)"/>
<path d="M0 0 C2.25761201 4.51522401 1.48146521 10.15147294 0.24609375 14.89453125 C-1.57419976 20.11270599 -3.70091006 24.53652537 -7 29 C-14.55425446 39.78324978 -16.1233734 45.92530047 -18 60 C-28.56 60 -39.12 60 -50 60 C-50.66 55.38 -51.32 50.76 -52 46 C-54.34880151 38.29593105 -58.01461351 33.08955137 -62.9375 26.7578125 C-66.16008234 22.4488293 -67.57819669 18.89811488 -68.75 13.625 C-67.51049506 7.63405948 -63.78987526 4.59240644 -59 1 C-40.50683923 -10.24010918 -18.70941368 -12.47294245 0 0 Z " fill="#D0D8FE" transform="translate(133,86)"/>
<path d="M0 0 C8.09921227 7.59399824 13.42626092 17.69041509 14.30078125 28.83203125 C14.34988146 45.50973731 9.11466027 55.53546722 -0.58203125 68.87109375 C-2.63267108 71.94987806 -3.1159258 74.4444871 -3.140625 78.0546875 C-3.16962891 79.22451172 -3.16962891 79.22451172 -3.19921875 80.41796875 C-3.23290636 82.04793091 -3.25128938 83.6782856 -3.25390625 85.30859375 C-3.29064453 86.48228516 -3.29064453 86.48228516 -3.328125 87.6796875 C-3.3374707 88.38851074 -3.34681641 89.09733398 -3.35644531 89.82763672 C-4.41498561 93.40081259 -6.01278664 94.79630248 -9 97 C-12.31579977 97.72701831 -15.55323783 97.70125504 -18.9375 97.6640625 C-19.89519287 97.66884613 -20.85288574 97.67362976 -21.83959961 97.67855835 C-23.86020555 97.68195401 -25.88086668 97.67277495 -27.90136719 97.65185547 C-30.99018111 97.6250851 -34.0753613 97.65161452 -37.1640625 97.68359375 C-39.13021634 97.68028959 -41.09636791 97.67388324 -43.0625 97.6640625 C-43.98345459 97.67418365 -44.90440918 97.68430481 -45.85327148 97.69473267 C-50.33207389 97.61306935 -52.39308846 97.44892919 -56.08569336 94.7175293 C-57.9549685 92.06392624 -58.6119256 91.01661847 -58.56640625 87.85546875 C-58.57736328 87.09556641 -58.58832031 86.33566406 -58.59960938 85.55273438 C-58.58124023 84.38194336 -58.58124023 84.38194336 -58.5625 83.1875 C-58.46609903 74.34085691 -60.63911132 68.40094613 -66.4375 61.625 C-75.55211225 50.31504028 -77.10940282 39.13094099 -76 25 C-73.69635283 12.56585624 -66.17823761 2.3120459 -56 -5 C-37.60567095 -15.87063356 -16.21064696 -13.55043823 0 0 Z M-57.8125 11.75 C-65.18426391 20.90470216 -66.15916685 30.54440757 -65.27050781 41.96044922 C-64.38129836 48.66483166 -60.54919587 53.3869644 -56.4375 58.5 C-49.35899335 67.3173572 -48.64483639 75.48614526 -47 87 C-36.44 87 -25.88 87 -15 87 C-14.34 82.05 -13.68 77.1 -13 72 C-10.09349672 65.19614004 -6.96392796 59.74224051 -2.38671875 54.01171875 C2.65627924 46.69582026 4.98836751 37.76740121 4 29 C1.35306688 18.43809126 -3.74726127 10.17986627 -12.86328125 4.0859375 C-28.80413964 -4.63914971 -45.40352444 -1.26365022 -57.8125 11.75 Z " fill="#291A80" transform="translate(130,59)"/>
<path d="M0 0 C13.2 0 26.4 0 40 0 C40 3.3 40 6.6 40 10 C26.8 10 13.6 10 0 10 C0 6.7 0 3.4 0 0 Z " fill="#2F2185" transform="translate(79,160)"/>
<path d="M0 0 C11.88 0 23.76 0 36 0 C36 3.3 36 6.6 36 10 C24.12 10 12.24 10 0 10 C0 6.7 0 3.4 0 0 Z " fill="#2A1C81" transform="translate(81,173)"/>
<path d="M0 0 C4.06950883 6.41255937 4.06950883 6.41255937 3.7668457 8.97045898 C2.8001929 11.52881134 1.86919477 12.06953015 -0.4921875 13.39453125 C-1.19730469 13.79220703 -1.90242188 14.18988281 -2.62890625 14.59960938 C-3.37011719 14.99986328 -4.11132812 15.40011719 -4.875 15.8125 C-5.60847656 16.23208984 -6.34195313 16.65167969 -7.09765625 17.08398438 C-11.18221764 19.34202514 -11.18221764 19.34202514 -13 20 C-16 19 -16 19 -17.16796875 17.15234375 C-17.50441406 16.42144531 -17.84085938 15.69054687 -18.1875 14.9375 C-18.53167969 14.20402344 -18.87585937 13.47054687 -19.23046875 12.71484375 C-19.48441406 12.14894531 -19.73835938 11.58304688 -20 11 C-4.01030928 0 -4.01030928 0 0 0 Z " fill="#27187F" transform="translate(51,114)"/>
<path d="M0 0 C4.76551013 1.37605916 8.7248553 3.46778066 12.875 6.125 C13.46796875 6.49753906 14.0609375 6.87007812 14.671875 7.25390625 C16.1181343 8.16365 17.55958046 9.08103798 19 10 C18.18174726 13.65433265 16.73565302 16.6796203 15 20 C10.67578354 18.41555427 6.73557417 16.282196 2.75 14 C2.11320312 13.64421875 1.47640625 13.2884375 0.8203125 12.921875 C-3.87881324 10.24237351 -3.87881324 10.24237351 -5 8 C-4.00390625 6.0546875 -4.00390625 6.0546875 -2.5625 3.875 C-2.08941406 3.15054688 -1.61632813 2.42609375 -1.12890625 1.6796875 C-0.75636719 1.12539063 -0.38382813 0.57109375 0 0 Z " fill="#27187F" transform="translate(36,49)"/>
<path d="M0 0 C1.16796875 1.84765625 1.16796875 1.84765625 2.1875 4.0625 C2.53167969 4.79597656 2.87585938 5.52945313 3.23046875 6.28515625 C3.48441406 6.85105469 3.73835938 7.41695312 4 8 C-2.08194628 12.27499123 -8.27746528 15.82819865 -15 19 C-15.86658615 17.73760288 -16.71792059 16.46472499 -17.5625 15.1875 C-18.27599609 14.12595703 -18.27599609 14.12595703 -19.00390625 13.04296875 C-20 11 -20 11 -19 8 C-16.5628049 6.1218942 -13.81656949 4.73387396 -11.125 3.25 C-10.39152344 2.82589844 -9.65804687 2.40179688 -8.90234375 1.96484375 C-8.19464844 1.56910156 -7.48695313 1.17335937 -6.7578125 0.765625 C-6.1095752 0.40243164 -5.46133789 0.03923828 -4.79345703 -0.33496094 C-3 -1 -3 -1 0 0 Z " fill="#27187F" transform="translate(162,50)"/>
<path d="M0 0 C1.31823302 0.59155331 2.62947051 1.19871463 3.9375 1.8125 C5.03384766 2.31716797 5.03384766 2.31716797 6.15234375 2.83203125 C8 4 8 4 9 7 C8.19555664 8.90112305 8.19555664 8.90112305 6.91015625 11.01171875 C6.45576172 11.76904297 6.00136719 12.52636719 5.53320312 13.30664062 C5.04787109 14.09232422 4.56253906 14.87800781 4.0625 15.6875 C3.58103516 16.48478516 3.09957031 17.28207031 2.60351562 18.10351562 C1.41134561 20.07472743 0.2099739 22.03968412 -1 24 C-5.43090471 22.79157144 -7.98112756 21.48331435 -11 18 C-9.35663827 15.18604881 -7.70989825 12.37408965 -6.0625 9.5625 C-5.59392578 8.76005859 -5.12535156 7.95761719 -4.64257812 7.13085938 C-4.19462891 6.36708984 -3.74667969 5.60332031 -3.28515625 4.81640625 C-2.87144775 4.10943604 -2.45773926 3.40246582 -2.03149414 2.67407227 C-1 1 -1 1 0 0 Z " fill="#27187F" transform="translate(134,24)"/>
<path d="M0 0 C1.8781058 2.4371951 3.26612604 5.18343051 4.75 7.875 C5.17410156 8.60847656 5.59820312 9.34195313 6.03515625 10.09765625 C6.43089844 10.80535156 6.82664062 11.51304688 7.234375 12.2421875 C7.59756836 12.8904248 7.96076172 13.53866211 8.33496094 14.20654297 C9 16 9 16 8 19 C6.15234375 20.16796875 6.15234375 20.16796875 3.9375 21.1875 C3.20402344 21.53167969 2.47054687 21.87585938 1.71484375 22.23046875 C1.14894531 22.48441406 0.58304688 22.73835938 0 23 C-4.27499123 16.91805372 -7.82819865 10.72253472 -11 4 C-9.73760288 3.13341385 -8.46472499 2.28207941 -7.1875 1.4375 C-6.47980469 0.96183594 -5.77210937 0.48617188 -5.04296875 -0.00390625 C-3 -1 -3 -1 0 0 Z " fill="#27187F" transform="translate(68,25)"/>
<path d="M0 0 C7.26 0 14.52 0 22 0 C22 3.63 22 7.26 22 11 C14.74 11 7.48 11 0 11 C0 7.37 0 3.74 0 0 Z " fill="#27187F" transform="translate(151,87)"/>
<path d="M0 0 C7.26 0 14.52 0 22 0 C22 3.63 22 7.26 22 11 C14.74 11 7.48 11 0 11 C0 7.37 0 3.74 0 0 Z " fill="#27187F" transform="translate(26,87)"/>
<path d="M0 0 C7.05582926 1.94290951 12.8653455 5.04257152 19 9 C18.31620454 12.95008059 17.21156817 15.63457018 15 19 C10.72724258 18.43288856 7.94982844 16.93094694 4.375 14.5625 C3.43398437 13.94503906 2.49296875 13.32757813 1.5234375 12.69140625 C0.69070312 12.13324219 -0.14203125 11.57507813 -1 11 C-1.99 10.34 -2.98 9.68 -4 9 C-2.94124926 5.59687262 -1.99097846 2.98646769 0 0 Z " fill="#2A1B81" transform="translate(148,115)"/>
<path d="M0 0 C3.3 0 6.6 0 10 0 C10 7.26 10 14.52 10 22 C6.7 22 3.4 22 0 22 C0 14.74 0 7.48 0 0 Z " fill="#27187F" transform="translate(94,16)"/>
</svg>
