<?xml version="1.0" standalone="no"?><!DOCTYPE svg PUBLIC "-//W3C//DTD SVG 1.1//EN" "http://www.w3.org/Graphics/SVG/1.1/DTD/svg11.dtd"><svg class="icon" width="200px" height="200.00px" viewBox="0 0 1024 1024" version="1.1" xmlns="http://www.w3.org/2000/svg"><path d="M888.490667 222.685867V191.146667l-65.672534-0.955734h-0.2048a465.7152 465.7152 0 0 1-144.315733-31.3344c-77.0048-31.197867-126.293333-66.7648-126.702933-67.106133l-39.799467-28.672-39.185067 28.4672c-2.048 1.501867-49.902933 36.0448-126.907733 67.310933a447.419733 447.419733 0 0 1-144.520533 31.3344l-65.877334 0.955734v378.88c0 87.04 49.834667 184.661333 137.0112 267.810133 37.546667 35.84 79.2576 66.3552 120.832 88.200533 43.281067 22.7328 84.241067 34.6112 118.852267 34.6112 34.4064 0 75.776-12.151467 119.6032-35.157333a547.976533 547.976533 0 0 0 120.0128-87.6544 515.208533 515.208533 0 0 0 96.187733-122.88c27.101867-49.5616 40.823467-98.304 40.823467-144.9984l-0.136533-347.204267zM510.088533 143.428267l1.706667-1.365334 1.774933 1.365334c5.802667 4.164267 59.528533 41.847467 140.356267 74.752 79.189333 32.085333 153.6 35.6352 167.662933 36.0448l2.594134 0.068266 0.2048 315.733334c0.136533 69.495467-42.5984 150.186667-117.077334 221.457066-65.7408 62.805333-144.1792 104.994133-195.310933 104.994134-23.688533 0-55.569067-9.898667-89.7024-27.784534a478.8224 478.8224 0 0 1-105.608533-77.277866C242.210133 720.213333 199.4752 639.522133 199.4752 569.890133V254.225067l2.730667-0.136534c3.2768 0 82.602667-1.501867 167.662933-35.976533a739.9424 739.9424 0 0 0 140.219733-74.615467v-0.068266z" fill="#2564EB" /><path d="M713.3184 368.64a32.221867 32.221867 0 0 0-45.329067 0L449.194667 587.434667 356.010667 494.318933a32.221867 32.221867 0 0 0-45.329067 0 32.221867 32.221867 0 0 0 0 45.2608l115.848533 115.848534a32.290133 32.290133 0 0 0 45.329067 0l241.4592-241.527467a32.221867 32.221867 0 0 0 0-45.329067z" fill="#2564EB" /></svg>