<?xml version="1.0" standalone="no"?><!DOCTYPE svg PUBLIC "-//W3C//DTD SVG 1.1//EN" "http://www.w3.org/Graphics/SVG/1.1/DTD/svg11.dtd"><svg class="icon" width="200px" height="200.00px" viewBox="0 0 1024 1024" version="1.1" xmlns="http://www.w3.org/2000/svg"><path d="M842.89941406 257.72011719v-27.72070313l-57.71953125-0.83935547h-0.18017578a409.31982422 409.31982422 0 0 1-126.83935547-27.53964843c-67.68017578-27.42011719-111.00058594-58.68017578-111.36005859-58.98076172l-34.98046875-25.2-34.43994141 25.02070312c-1.8 1.31923828-43.86005859 31.67929687-111.54023437 59.15917969a393.24023438 393.24023438 0 0 1-127.01953125 27.54052734l-57.89970703 0.84023438v333c0 76.5 43.79941406 162.29970703 120.41894531 235.37988281 33.00029297 31.5 69.66035156 58.31982422 106.2008789 77.51953125 38.0390625 19.98017578 74.0390625 30.42070312 104.45976563 30.42070313 30.23964844 0 66.6-10.68046875 105.11982422-30.90058594a481.62041016 481.62041016 0 0 0 105.48017578-77.03964844 452.82041016 452.82041016 0 0 0 84.54023437-108c23.82011719-43.56035156 35.87958984-86.4 35.87958985-127.44052734l-0.11953125-305.15976563zM510.32128906 188.05976563l1.49941407-1.19970704 1.56005859 1.19970703c5.10029297 3.66064453 52.32041016 36.78046875 123.35976562 65.7 69.60058594 28.20058594 135 31.31982422 147.3600586 31.68017579l2.27988281 0.05976562 0.18017578 277.50058594c0.12041016 61.07958984-37.43964844 131.99941406-102.89970703 194.63994141C625.87988281 812.83994141 556.93847656 849.92011719 512 849.92011719c-20.82041016 0-48.84082031-8.70029297-78.83964844-24.42041016a420.83964844 420.83964844 0 0 1-92.82041015-67.92011719C274.87988281 694.99970703 237.31982422 624.07988281 237.31982422 562.87988281V285.43994141l2.39941406-0.11953125c2.88105469 0 72.60117187-1.32011719 147.3609375-31.62041016a650.33964844 650.33964844 0 0 0 123.24023438-65.57958984v-0.06064453z" fill="#2c2c2c" /><path d="M688.93964844 386a28.32011719 28.32011719 0 0 0-39.83994141 0L456.80029297 578.30029297l-81.9-81.84023438a28.32011719 28.32011719 0 0 0-39.84082031 0 28.32011719 28.32011719 0 0 0 0 39.77929688l101.82128906 101.82128906a28.37988281 28.37988281 0 0 0 39.8390625 0L688.94140625 425.77929687a28.32011719 28.32011719 0 0 0 0-39.84082031z" fill="#2c2c2c" /></svg>