<?xml version="1.0" standalone="no"?><!DOCTYPE svg PUBLIC "-//W3C//DTD SVG 1.1//EN" "http://www.w3.org/Graphics/SVG/1.1/DTD/svg11.dtd"><svg t="1756276977001" class="icon" viewBox="0 0 1024 1024" version="1.1" xmlns="http://www.w3.org/2000/svg" p-id="33039" width="128" height="128" xmlns:xlink="http://www.w3.org/1999/xlink"><path d="M512 64C264.58 64 64 264.58 64 512s200.58 448 448 448 448-200.58 448-448S759.42 64 512 64z m215 612.05a36.11 36.11 0 0 1 0 50.95 36.11 36.11 0 0 1-50.91 0L512 562.91 348 727a36.11 36.11 0 0 1-51 0 36.11 36.11 0 0 1 0-50.91l164-164L297 348a36.11 36.11 0 0 1 0-51 36.11 36.11 0 0 1 51 0l164 164.09 164-164a36.11 36.11 0 0 1 51-0.09 36.11 36.11 0 0 1 0 51L562.91 512z" p-id="33040" fill="#f51c29"></path></svg>