<?xml version="1.0" standalone="no"?><!DOCTYPE svg PUBLIC "-//W3C//DTD SVG 1.1//EN" "http://www.w3.org/Graphics/SVG/1.1/DTD/svg11.dtd"><svg t="1767859968874" class="icon" viewBox="0 0 1024 1024" version="1.1" xmlns="http://www.w3.org/2000/svg" p-id="5537" width="128" height="128" xmlns:xlink="http://www.w3.org/1999/xlink"><path d="M896 64c38.4 0 64 25.6 64 64v768c0 38.4-25.6 64-64 64H128c-38.4 0-64-25.6-64-64V128c0-38.4 25.6-64 64-64h768m0-64H128C57.6 0 0 57.6 0 128v768c0 70.4 57.6 128 128 128h768c70.4 0 128-57.6 128-128V128c0-70.4-57.6-128-128-128z" p-id="5538" fill="#4a505a"></path><path d="M339.2 544H179.2c-25.6 0-51.2-12.8-51.2-32s19.2-32 44.8-32h160c32 0 51.2 12.8 51.2 32s-19.2 32-44.8 32zM339.2 320H179.2c-25.6 0-51.2-12.8-51.2-32s25.6-32 51.2-32h160c25.6 0 44.8 12.8 44.8 32s-19.2 32-44.8 32zM339.2 768H179.2c-32 0-51.2-12.8-51.2-32s19.2-32 51.2-32h160c25.6 0 44.8 12.8 44.8 32s-19.2 32-44.8 32zM832 876.8H512c-38.4 0-64-32-64-70.4V512c0-25.6 6.4-38.4 19.2-44.8 12.8-19.2 38.4-19.2 44.8-19.2h121.6c38.4 0 57.6 44.8 64 44.8v6.4H832c38.4 0 64 32 64 70.4v243.2c0 32-32 64-64 64zM627.2 512H512v294.4s0 6.4 6.4 6.4H832s6.4 0 6.4-6.4V569.6s0-6.4-6.4-6.4h-140.8c-6.4 0-32 0-51.2-38.4L627.2 512zM684.8 499.2z" p-id="5539" fill="#4a505a"></path><path d="M576 256m-64 0a64 64 0 1 0 128 0 64 64 0 1 0-128 0Z" fill="#4a505a" p-id="5540"></path><path d="M768 256m-64 0a64 64 0 1 0 128 0 64 64 0 1 0-128 0Z" fill="#4a505a" p-id="5541"></path></svg>