<?xml version="1.0" standalone="no"?><!DOCTYPE svg PUBLIC "-//W3C//DTD SVG 1.1//EN" "http://www.w3.org/Graphics/SVG/1.1/DTD/svg11.dtd"><svg t="1677143562324" class="icon" viewBox="0 0 1024 1024" version="1.1" xmlns="http://www.w3.org/2000/svg" p-id="1657" xmlns:xlink="http://www.w3.org/1999/xlink" width="12" height="12"><path d="M777.947 146.286H246.053a26.331 26.331 0 0 0-26.624 26.112v679.204a26.331 26.331 0 0 0 26.624 26.112h531.894a26.331 26.331 0 0 0 26.624-26.112V172.398a26.331 26.331 0 0 0-26.624-26.112z m-33.206 672.621H279.259V654.848h81.408c9.582 26.77 26.551 50.834 49.08 69.12a162.743 162.743 0 0 0 204.507 0c22.528-18.286 39.497-42.35 49.079-69.12h81.408v-51.42H621.349l-4.316 20.188A106.935 106.935 0 0 1 512 707.95c-50.834 0-95.086-35.548-105.18-84.334l-4.315-20.187H279.26V205.093h465.482v613.814zM352.402 372.443h319.196a6.555 6.555 0 0 0 6.583-6.582v-39.132a6.583 6.583 0 0 0-6.583-6.583H352.402a6.583 6.583 0 0 0-6.583 6.583v39.132a6.555 6.555 0 0 0 6.583 6.582z m0 130.56h319.196a6.555 6.555 0 0 0 6.583-6.582v-39.132a6.583 6.583 0 0 0-6.583-6.583H352.402a6.583 6.583 0 0 0-6.583 6.583v39.205a6.555 6.555 0 0 0 6.583 6.583z" fill="#1890FF" p-id="1658"></path></svg>