<?xml version="1.0" standalone="no"?><!DOCTYPE svg PUBLIC "-//W3C//DTD SVG 1.1//EN" "http://www.w3.org/Graphics/SVG/1.1/DTD/svg11.dtd"><svg t="1767860027596" class="icon" viewBox="0 0 1024 1024" version="1.1" xmlns="http://www.w3.org/2000/svg" p-id="6979" width="128" height="128" xmlns:xlink="http://www.w3.org/1999/xlink"><path d="M941.6 593.8c0 11.7 6.9 22.6 18 28.5 11.2 5.9 24.9 5.9 36.1 0 11.2-5.9 18-16.7 18-28.5 0-11.7-6.9-22.6-18-28.5-11.2-5.9-24.9-5.9-36.1 0-11.1 5.9-18 16.7-18 28.5z m0 0" p-id="6980" fill="#4a505a"></path><path d="M977.7 691.9c-19.9 0-36.1 14.7-36.1 32.9v82.6c0 36.1-32.1 65.5-71.7 65.5H154c-39.5 0-71.7-29.4-71.7-65.5V217.9c0-36.1 32.1-65.5 71.7-65.5h249.2l92.6 146.7c7.4 11.7 21.5 17.6 35.3 16.2h338.7c39.5 0 71.7 29.4 71.7 65.5v81.9c0 18.1 16.1 32.9 36.1 32.9 19.9 0 36.1-14.7 36.1-32.9 0-0.8 0-1.6-0.1-2.5v-79.4c0-56.5-39.1-104.6-93.9-123.1v-1c0-69.8-62.5-127-138.9-127h-309l-16.6-26.3C446.9 90.2 435 86.8 424.6 87l-0.1-0.1H153.6C74.4 87 10.3 145.7 10.3 218.1v587.8c0 72.4 64.2 131.1 143.3 131.1h716.7c79.2 0 143.3-58.7 143.3-131.1v-78.7c0.1-0.8 0.1-1.6 0.1-2.5 0-18.1-16.1-32.8-36-32.8zM775.1 195.1c35.4 0 65 23.8 70.7 54.7H547.6l-34.5-54.7h262z m0 0" p-id="6981" fill="#4a505a"></path></svg>