<?xml version="1.0" standalone="no"?><!DOCTYPE svg PUBLIC "-//W3C//DTD SVG 1.1//EN" "http://www.w3.org/Graphics/SVG/1.1/DTD/svg11.dtd"><svg t="1753941111921" class="icon" viewBox="0 0 1024 1024" version="1.1" xmlns="http://www.w3.org/2000/svg" p-id="1607" xmlns:xlink="http://www.w3.org/1999/xlink" width="200" height="200"><path d="M512.3 910.6c-30.9-0.1-59.9-14.5-78.9-38.8L87.7 542.5c-25.9-33.1-30.8-78-12.7-116l120.4-253.2c16.4-35.9 52.2-59.1 91.7-59.3h450.3c39.5 0.2 75.3 23.3 91.5 59.3l120.6 253.2c17.9 38 12.9 82.8-12.9 116L591.1 871.7c-18.9 24.4-47.9 38.7-78.8 38.9zM347.6 450.1c-27.4 0.2-49.6 22.4-49.8 49.8 0 13.3 5.3 26 14.7 35.4l170.2 170.3c9.3 9.4 22 14.6 35.2 14.5 13.2 0 25.9-5.2 35.3-14.5 3.4-3.3 6.2-7.1 8.4-11.3 2.1-1.5 4.2-3.2 6.1-5l0.5-0.4 170.2-170.3c19.4-19.4 19.5-51 0-70.4-19.4-19.4-51-19.4-70.4 0L516.9 599 382.5 464.9c-9.2-9.4-21.7-14.7-34.9-14.8z" p-id="1608"></path></svg>