<?xml version="1.0" standalone="no"?><!DOCTYPE svg PUBLIC "-//W3C//DTD SVG 1.1//EN" "http://www.w3.org/Graphics/SVG/1.1/DTD/svg11.dtd"><svg t="1772611841845" class="icon" viewBox="0 0 1024 1024" version="1.1" xmlns="http://www.w3.org/2000/svg" p-id="48935" width="128" height="128" xmlns:xlink="http://www.w3.org/1999/xlink"><path d="M752.497 848.501 592.498 848.501l0-16.002c0-8.837-7.163-15.998-16-15.998l-128 0c-8.837 0-16 7.162-16 15.998l0 16.002L272.5 848.501c-8.837 0-16.002 7.162-16.002 15.998l0 32.003c0 8.835 7.165 15.998 16.002 15.998l479.997 0c8.837 0 16-7.163 16-15.998l0-32.003C768.497 855.662 761.334 848.501 752.497 848.501zM976.5 112.499 48.498 112.499c-8.837 0-15.998 7.163-15.998 16l0 608.002c0 8.837 7.162 15.998 15.998 15.998L976.5 752.499c8.837 0 16-7.162 16-15.998L992.5 128.499C992.5 119.662 985.337 112.499 976.5 112.499zM800.498 528.501c0 8.837-7.163 16-16 16l-32 0c-8.837 0-16-7.163-16-16L736.498 331.996 536.902 527.742l-22.973 22.098c-6.342 6.098-16.627 6.098-22.973 0l-80.187-77.131L243.18 635.933c-6.342 6.102-16.627 6.102-22.971 0l-22.973-22.093c-6.342-6.102-6.342-15.995 0-22.098L374.45 419.144c0.496-0.656 1.032-1.292 1.647-1.883l22.971-22.094c6.346-6.106 16.629-6.106 22.973 0l22.971 22.094c0.003 0.003 0.006 0.007 0.01 0.01l57.309 55.124 187.514-183.894L528.498 288.501c-8.837 0-16-7.163-16-16l0-32c0-8.837 7.163-16 16-16l256 0c8.837 0 16 7.163 16 16L800.498 528.501z" p-id="48936" fill="#fb923c"></path></svg>