<?xml version="1.0" standalone="no"?><!DOCTYPE svg PUBLIC "-//W3C//DTD SVG 1.1//EN" "http://www.w3.org/Graphics/SVG/1.1/DTD/svg11.dtd"><svg t="1772678092334" class="icon" viewBox="0 0 1024 1024" version="1.1" xmlns="http://www.w3.org/2000/svg" p-id="13164" xmlns:xlink="http://www.w3.org/1999/xlink" width="128" height="128"><path d="M0 0m256 0l512 0q256 0 256 256l0 512q0 256-256 256l-512 0q-256 0-256-256l0-512q0-256 256-256Z" fill="#0081FF" fill-opacity=".1" p-id="13165"></path><path d="M638.784 739.584H385.216a17.322667 17.322667 0 1 0 0 34.666667h253.568a17.322667 17.322667 0 1 0 0-34.666667zM743.146667 277.333333H280.874667C251.029333 277.333333 234.666667 294.4 234.666667 323.050667v336.277333c0 28.693333 16.362667 45.653333 46.208 45.653333h462.250666c29.845333 0 46.208-16.96 46.208-45.696V323.029333c0-28.586667-16.362667-45.696-46.186666-45.696z m-150.997334 222.506667l-101.546666 75.52a13.461333 13.461333 0 0 1-13.909334 1.237333 13.056 13.056 0 0 1-7.36-11.690666v-146.474667c0-4.885333 2.773333-9.386667 7.168-11.648a13.525333 13.525333 0 0 1 13.781334 0.938667l101.525333 70.976a13.056 13.056 0 0 1 0.298667 21.12h0.042666z" fill="#0081FF" p-id="13166"></path></svg>