<?xml version="1.0" standalone="no"?><!DOCTYPE svg PUBLIC "-//W3C//DTD SVG 1.1//EN" "http://www.w3.org/Graphics/SVG/1.1/DTD/svg11.dtd"><svg t="1772612613788" class="icon" viewBox="0 0 1024 1024" version="1.1" xmlns="http://www.w3.org/2000/svg" p-id="50986" xmlns:xlink="http://www.w3.org/1999/xlink" width="128" height="128"><path d="M512 0C256.853 0 56.889 83.627 56.889 174.649v91.591c0 83.456 206.848 159.289 455.111 159.289 255.147 0 455.111-68.267 455.111-159.289v-91.591C967.111 91.193 767.147 0 512 0z" p-id="50987"></path><path d="M512 526.734c-255.147 0-455.111-68.266-455.111-159.289v199.567C56.889 650.41 263.737 726.3 512 726.3c255.147 0 455.111-68.266 455.111-159.288V367.445c0 83.456-199.964 159.29-455.111 159.29z" p-id="50988"></path><path d="M512 820.11c-255.147 0-455.111-68.266-455.111-159.289v203.947C56.889 948.168 263.737 1024 512 1024c255.147 0 455.111-68.267 455.111-159.289v-203.89c0 91.023-199.964 159.29-455.111 159.29z" p-id="50989"></path></svg>