<?xml version="1.0" standalone="no"?><!DOCTYPE svg PUBLIC "-//W3C//DTD SVG 1.1//EN" "http://www.w3.org/Graphics/SVG/1.1/DTD/svg11.dtd"><svg t="1772614513721" class="icon" viewBox="0 0 1280 1024" version="1.1" xmlns="http://www.w3.org/2000/svg" p-id="110603" xmlns:xlink="http://www.w3.org/1999/xlink" width="160" height="128"><path d="M18.752 466.794667A63.829333 63.829333 0 0 0 0 512v256a63.957333 63.957333 0 0 0 64 64h64V448H64a64 64 0 0 0-45.248 18.794667zM928 192H704V64c0-35.242667-28.757333-64-64-64s-64 28.757333-64 64v128H352A159.957333 159.957333 0 0 0 192 352V896c0 70.762667 57.237333 128 128 128h640c70.762667 0 128-57.237333 128-128V352c0-88.405333-71.402667-160-160-160zM512 832h-128v-64h128v64z m-64-240A79.978667 79.978667 0 0 1 368 512 79.978667 79.978667 0 0 1 448 432 79.978667 79.978667 0 0 1 528 512 79.978667 79.978667 0 0 1 448 592zM704 832h-128v-64h128v64z m192 0h-128v-64h128v64z m-64-240A79.936 79.936 0 0 1 752 512 79.957333 79.957333 0 0 1 832 432 79.978667 79.978667 0 0 1 912 512 79.978667 79.978667 0 0 1 832 592z m429.205333-125.205333A63.893333 63.893333 0 0 0 1216 448h-64v384h64a63.957333 63.957333 0 0 0 64-64V512c0-17.002667-6.805333-33.194667-18.794667-45.205333z" p-id="110604"></path></svg>