<?xml version="1.0" standalone="no"?><!DOCTYPE svg PUBLIC "-//W3C//DTD SVG 1.1//EN" "http://www.w3.org/Graphics/SVG/1.1/DTD/svg11.dtd"><svg t="1772608251927" class="icon" viewBox="0 0 1024 1024" version="1.1" xmlns="http://www.w3.org/2000/svg" p-id="13735" width="128" height="128" xmlns:xlink="http://www.w3.org/1999/xlink"><path d="M896 112a64 64 0 0 1 64 64v96a64 64 0 0 1-64 64H128a64 64 0 0 1-64-64v-96a64 64 0 0 1 64-64h768z m-531.2 64H211.2a19.2 19.2 0 0 0-19.2 19.2v38.4a19.2 19.2 0 0 0 19.2 19.2h153.6a19.2 19.2 0 0 0 19.2-19.2v-38.4a19.2 19.2 0 0 0-19.2-19.2z m531.2 512a64 64 0 0 1 64 64v96a64 64 0 0 1-64 64H128a64 64 0 0 1-64-64v-96a64 64 0 0 1 64-64h768z m-531.2 64H211.2a19.2 19.2 0 0 0-19.2 19.2v38.4a19.2 19.2 0 0 0 19.2 19.2h153.6a19.2 19.2 0 0 0 19.2-19.2v-38.4a19.2 19.2 0 0 0-19.2-19.2z" fill="#2563eb" p-id="13736" data-spm-anchor-id="a313x.search_index.0.i0.3b683a81Z2nBDw" class="selected"></path><path d="M896 400a64 64 0 0 1 64 64v96a64 64 0 0 1-64 64H128a64 64 0 0 1-64-64v-96a64 64 0 0 1 64-64h768z m-531.2 64H211.2a19.2 19.2 0 0 0-19.2 19.2v38.4a19.2 19.2 0 0 0 19.2 19.2h153.6a19.2 19.2 0 0 0 19.2-19.2v-38.4a19.2 19.2 0 0 0-19.2-19.2z" fill="#2563eb" opacity=".5" p-id="13737" data-spm-anchor-id="a313x.search_index.0.i1.3b683a81Z2nBDw" class="selected"></path></svg>