<?xml version="1.0" standalone="no"?><!DOCTYPE svg PUBLIC "-//W3C//DTD SVG 1.1//EN" "http://www.w3.org/Graphics/SVG/1.1/DTD/svg11.dtd"><svg t="1772613818736" class="icon" viewBox="0 0 1024 1024" version="1.1" xmlns="http://www.w3.org/2000/svg" p-id="83080" xmlns:xlink="http://www.w3.org/1999/xlink" width="128" height="128"><path d="M373.63 144c50.3-21.4 103.7-32.2 158.7-32.2 159.8 0 305.6 94.4 371.5 240.4 7.1 15.6 22.4 24.8 38.4 24.8 5.8 0 11.7-1.3 17.3-3.8 21.3-9.6 30.6-34.5 21.2-55.8-79.4-176-255.5-289.9-448.4-289.9-66.4 0-131.1 13.2-191.8 39-21.4 9.2-31.5 33.9-22.3 55.4 9.2 21.4 33.9 31.3 55.4 22.1z m650.3 370.8V507c0-1.8-0.1-3.7-0.3-5.5-0.3-8.4-0.8-16.9-1.5-25.3-2.1-23.3-22.4-40.3-45.6-38.4-23.2 2.1-40.3 22.4-38.4 45.6 0.8 9.9 1.4 20 1.5 30.1-1.3 130.2-40.2 256-112.7 363.9-13.1 19.4-7.8 45.5 11.6 58.5 7.3 4.8 15.5 7.2 23.5 7.2 13.6 0 26.8-6.5 35.1-18.6 79.9-119.1 123.6-257.5 126.7-400.9 0.1-1.5 0.2-2.9 0.2-4.5-0.1-1.5-0.1-2.8-0.1-4.3z m-747.6-6.6c2.3-93.4 52.7-180.1 131.5-226 20.1-11.8 26.8-37.6 15.1-57.6-11.8-20.1-37.6-26.8-57.6-15.1-50.4 29.5-93.2 72-123.5 123.1-29.3 49.3-46.2 105.4-49.4 163.1-1.1 3.7-1.6 7.7-1.6 11.7 0 83.3-35.8 162.7-98.3 218.3-17.4 15.5-18.9 42.1-3.5 59.6 8.3 9.4 19.9 14.2 31.6 14.2 9.9 0 20-3.6 28-10.6 77.8-69.2 123.5-167.4 126.4-270.9 0.8-3.3 1.3-6.5 1.3-9.8z m521.6 208.5c-21.4-9.2-46.2 0.8-55.4 22.2-29.6 69.4-71.9 131.8-125.4 185.6-16.4 16.4-16.3 43.3 0.1 59.7 8.2 8.2 18.9 12.3 29.7 12.3s21.6-4.1 29.8-12.4c61.2-61.4 109.3-132.7 143.3-211.9 9.2-21.5-0.7-46.3-22.1-55.5z m0 0" p-id="83081"></path><path d="M770.43 658.2c-5.9 22.5 7.5 45.6 30 51.6 3.7 0.9 7.2 1.4 10.7 1.4 18.6 0 35.8-12.4 40.7-31.5 13.6-51.5 21.1-104.7 22.2-158.3 0.3-2.1 0.4-4.1 0.4-6.3 0-193.7-153.1-351.3-341.3-351.3-23.4 0-42.2 18.8-42.2 42.2s18.8 42.2 42.2 42.2c138.3 0 251.4 114.1 256.6 256.4 0 0.8-0.1 1.6-0.1 2.4 0.3 51.3-6.3 102.1-19.2 151.2z m0 0" p-id="83082"></path><path d="M723.83 534.3c1.8-4.6 2.8-9.8 2.8-15.1 0-107.9-86.2-195.6-192.3-195.6-50.6 0-98.4 19.9-134.5 56-30.2 30.1-49.4 68.7-55.6 110.5-2.3 5.3-3.6 10.9-3.6 17.1 0 49.1-9.6 96.7-28.3 141.5-9.1 21.5 1.2 46.2 22.5 55.3 5.4 2.3 10.8 3.4 16.3 3.4 16.4 0 32.1-9.7 38.8-25.8 20.4-48.8 32-100.2 34.5-153.2 1.2-3.8 1.9-7.7 1.9-11.8 1.5-59.8 49.8-108.4 107.9-108.4 53.3 0 97.5 39.9 106.3 92.2-0.3 2.3-0.5 4.5-0.5 6.9 0 158.5-71.6 306.2-196.3 405.2-18.3 14.5-21.3 40.9-6.8 59.3 8.3 10.5 20.7 16 33.1 16 9.2 0 18.4-2.9 26.2-9.2 69.5-55.2 127.1-126.1 166.2-205.3 37.2-75.3 57.7-155.7 61.4-239z m0 0" p-id="83083"></path><path d="M574.83 507c0-23.4-18.8-42.2-42.2-42.2-23.4 0-42.2 18.8-42.2 42.2 0 143-70 277.9-187.2 361-18.9 13.5-23.5 39.8-10.1 58.7 8.2 11.6 21.3 17.8 34.4 17.8 8.4 0 16.9-2.5 24.3-7.8 67.4-47.7 123.3-111.4 161.8-184 40-75.3 61.2-160.1 61.2-245.7z m-233.5 261.5c13.5-18.9 9.2-45.3-9.8-58.7-19-13.4-45.3-9.2-58.7 9.8-23.4 32.7-51.6 61.2-84 84.7-18.8 13.7-23 40-9.4 58.8 8.2 11.4 21.2 17.4 34.2 17.4 8.5 0 17.3-2.6 24.7-8 39.8-29 74.4-63.9 103-104z m-215.9-264.4c3.2-87.2 33.5-169.2 87.8-237.7 14.5-18.3 11.5-44.7-6.8-59.3-18.3-14.5-44.7-11.5-59.3 6.8-66.8 84.2-103.6 185.4-106.3 292.7 0 1.7 0 3.4 0.1 4.9-0.8 40.1-12.5 79.2-34.3 112.8-12.5 19.6-6.8 45.6 12.7 58.3 7.1 4.5 14.9 6.7 22.7 6.7 13.8 0 27.5-6.8 35.6-19.4 31.3-48.6 47.8-105 47.8-162.7 0.1-1 0.1-2.1 0-3.1z m0 0" p-id="83084"></path></svg>