<?xml version="1.0" standalone="no"?><!DOCTYPE svg PUBLIC "-//W3C//DTD SVG 1.1//EN" "http://www.w3.org/Graphics/SVG/1.1/DTD/svg11.dtd"><svg t="1758093733680" class="icon" viewBox="0 0 1024 1024" version="1.1" xmlns="http://www.w3.org/2000/svg" p-id="104044" width="128" height="128" xmlns:xlink="http://www.w3.org/1999/xlink"><path d="M86.8 510.8c-16.1 0-25.3 13.8-18.4 29.9l32.2 321.9c4.6 16.1 20.7 29.9 36.8 29.9h751.9c16.1 0 32.2-13.8 36.8-29.9l32.2-321.9c4.6-16.1-4.6-29.9-20.7-29.9H86.8z m538.1 128.7c9.2 0 16.1-6.9 16.1-16.1v-32.2c0-9.2-6.9-16.1-16.1-16.1h-223c-9.2 0-16.1 6.9-16.1 16.1v32.2c0 9.2 6.9 16.1 16.1 16.1h223zM257 430.6c0 9.2 6.9 16.1 16.1 16.1h480.6c9.2 0 16.1-6.9 16.1-16.1v-32.2c0-9.2-6.9-16.1-16.1-16.1H273.1c-9.2 0-16.1 6.9-16.1 16.1v32.2z m0 0" p-id="104045" fill="#1014d7"></path><path d="M813.5 191.4c9.2 0 16.1 6.9 18.4 16.1l52.9 229.9c2.3 9.2 11.5 16.1 18.4 16.1h43.7c9.2 0 13.8-6.9 11.5-13.8l-64.4-292c-2.3-9.2-9.2-16.1-18.4-16.1H146.7c-9.2 0-18.4 6.9-18.4 16.1L63.9 437.5c-2.3 9.2 4.6 16.1 11.5 16.1h41.4c9.2 0 16.1-6.9 18.4-16.1l52.9-229.9c2.3-9.2 9.2-16.1 18.4-16.1h607z m0 0" p-id="104046" fill="#1014d7"></path><path d="M257 304.1c0 9.2 6.9 16.1 16.1 16.1h480.6c9.2 0 16.1-6.9 16.1-16.1v-34.5c0-9.2-6.9-16.1-16.1-16.1H273.1c-9.2 0-16.1 6.9-16.1 16.1v34.5z m0 0" p-id="104047" fill="#1014d7"></path></svg>