<?xml version="1.0" standalone="no"?><!DOCTYPE svg PUBLIC "-//W3C//DTD SVG 1.1//EN" "http://www.w3.org/Graphics/SVG/1.1/DTD/svg11.dtd"><svg t="1756277097087" class="icon" viewBox="0 0 1024 1024" version="1.1" xmlns="http://www.w3.org/2000/svg" p-id="34203" width="128" height="128" xmlns:xlink="http://www.w3.org/1999/xlink"><path d="M511.3 960.2c-247.5 0-448.1-200.6-448.1-448.1s200.7-448 448.1-448 448.1 200.6 448.1 448.1-200.6 448-448.1 448z m43.4-737.1c0-23.9-19.4-43.4-43.4-43.4-23.9 0-43.4 19.4-43.4 43.4v260.2c0 23.9 19.4 43.4 43.4 43.4 23.9 0 43.4-19.4 43.4-43.4V223.1zM774.3 309l-58.8 66.4c26.2 39.1 41.6 86.1 41.6 136.7 0 135.7-110 245.7-245.7 245.7s-245.7-110-245.7-245.7c0-50.3 15.2-97.1 41.2-136.1L248 309.6c-43.2 56.1-69.2 126.2-69.2 202.5 0 183.7 148.9 332.6 332.6 332.6 183.7 0 332.6-148.9 332.6-332.6-0.1-76.5-26.2-146.9-69.7-203.1z" fill="#d91801" p-id="34204"></path></svg>