<?xml version="1.0" standalone="no"?><!DOCTYPE svg PUBLIC "-//W3C//DTD SVG 1.1//EN" "http://www.w3.org/Graphics/SVG/1.1/DTD/svg11.dtd"><svg t="1758679523507" class="icon" viewBox="0 0 1024 1024" version="1.1" xmlns="http://www.w3.org/2000/svg" p-id="7483" width="128" height="128" xmlns:xlink="http://www.w3.org/1999/xlink"><path d="M816 86.4H204.8c-23.2 0-46.4 9.6-62.4 26.4-16.8 16.8-25.6 39.2-25.6 63.2v672c0 48.8 40 88 88 88h105.6c2.4 0.8 4.8 1.6 7.2 1.6 2.4 0 4.8-0.8 7.2-1.6H816c23.2 0 45.6-9.6 62.4-25.6 16.8-16.8 25.6-39.2 25.6-62.4V175.2c0-23.2-8.8-46.4-25.6-63.2-16.8-16-39.2-25.6-62.4-25.6z m-258.4 58.4h135.2V376l-47.2-47.2c-11.2-11.2-29.6-11.2-40.8 0L557.6 376V144.8z m-383.2 702.4v-672c0-8 3.2-16 8.8-21.6 5.6-5.6 13.6-8.8 21.6-8.8h85.6v732.8H204.8c-16.8-0.8-30.4-13.6-30.4-30.4z m672-459.2v459.2c0 16.8-13.6 29.6-30.4 29.6H348V144.8h154.4v300.8c0 3.2 0.8 7.2 2.4 10.4 3.2 7.2 8.8 12.8 16 16 6.4 3.2 14.4 3.2 20.8 0.8 3.2-1.6 6.4-3.2 9.6-6.4l76-76 76 76c2.4 2.4 5.6 4.8 9.6 6.4 7.2 3.2 15.2 3.2 21.6 0 7.2-3.2 12.8-8.8 16-16 1.6-3.2 1.6-7.2 1.6-10.4V144.8h64.8c8 0 16 3.2 21.6 8.8 5.6 5.6 8.8 13.6 8.8 21.6l-0.8 212.8z m0 0" fill="#333333" p-id="7484"></path></svg>