<?xml version="1.0" standalone="no"?><!DOCTYPE svg PUBLIC "-//W3C//DTD SVG 1.1//EN" "http://www.w3.org/Graphics/SVG/1.1/DTD/svg11.dtd"><svg t="1765160120794" class="icon" viewBox="0 0 1024 1024" version="1.1" xmlns="http://www.w3.org/2000/svg" p-id="13300" width="128" height="128" xmlns:xlink="http://www.w3.org/1999/xlink"><path d="M372.48 478.08L88.32 324.48c-26.24-14.08-57.6 6.4-57.6 38.4V662.4c0 31.36 16 59.52 42.24 73.6l284.16 153.6c26.24 14.08 57.6-7.04 57.6-39.04V551.68c0-31.36-16-59.52-42.24-73.6z m406.4-223.36c13.44-7.04 19.84-19.2 18.56-30.72 1.28-12.16-5.12-23.68-18.56-30.72L489.6 42.24C476.8 35.2 461.44 32 446.08 32s-30.72 3.2-43.52 10.24l-289.28 150.4c-13.44 7.04-19.2 19.2-18.56 30.72-0.64 12.16 5.12 24.32 18.56 31.36l289.28 150.4c12.8 7.04 28.16 10.24 43.52 10.24s30.72-3.2 43.52-10.24l289.28-150.4zM545.28 800c0-141.379 114.621-256 256-256a256.34 256.34 0 0 1 61.44 7.475V363.52c0-32.64-31.36-53.12-57.6-39.04L520.96 478.72c-26.24 14.08-42.24 42.24-42.24 73.6v298.24c0 32 31.36 53.12 57.6 38.4l20.966-11.382A255.555 255.555 0 0 1 545.28 800z" p-id="13301"></path><path d="M982.282 770.37l-41.85-8.37a13.773 13.773 0 0 1-10.271-8.843 135.194 135.194 0 0 0-4.64-11.202 13.788 13.788 0 0 1 1-13.492l23.659-35.491a13.706 13.706 0 0 0-1.71-17.301l-22.892-22.891a13.706 13.706 0 0 0-17.3-1.71l-35.472 23.638a13.773 13.773 0 0 1-13.49 0.999 135.926 135.926 0 0 0-11.203-4.639 13.783 13.783 0 0 1-8.843-10.23l-8.36-41.85a13.711 13.711 0 0 0-13.45-10.998h-32.37a13.711 13.711 0 0 0-13.45 10.998l-8.37 41.85a13.773 13.773 0 0 1-8.843 10.271 135.194 135.194 0 0 0-11.203 4.639 13.787 13.787 0 0 1-13.49-0.999l-35.493-23.66a13.706 13.706 0 0 0-17.3 1.711l-22.892 22.892a13.706 13.706 0 0 0-1.71 17.3l23.64 35.471a13.773 13.773 0 0 1 0.998 13.492 135.926 135.926 0 0 0-4.64 11.202A13.783 13.783 0 0 1 662.109 762l-41.85 8.361a13.711 13.711 0 0 0-10.998 13.45v32.37a13.711 13.711 0 0 0 10.997 13.45l41.851 8.37a13.773 13.773 0 0 1 10.27 8.843 135.194 135.194 0 0 0 4.64 11.202 13.787 13.787 0 0 1-0.999 13.492l-23.66 35.491a13.706 13.706 0 0 0 1.71 17.301l22.892 22.891a13.706 13.706 0 0 0 17.3 1.71l35.472-23.638a13.773 13.773 0 0 1 13.491-0.999c3.65 1.71 7.388 3.251 11.203 4.639a13.783 13.783 0 0 1 8.842 10.23l8.361 41.85a13.711 13.711 0 0 0 13.45 10.998h32.369a13.711 13.711 0 0 0 13.45-10.998l8.371-41.85a13.773 13.773 0 0 1 8.843-10.271 135.194 135.194 0 0 0 11.202-4.639 13.788 13.788 0 0 1 13.491 0.999l35.492 23.66a13.706 13.706 0 0 0 17.3-1.711l22.892-22.892a13.706 13.706 0 0 0 1.71-17.3l-23.639-35.471a13.773 13.773 0 0 1-0.998-13.492 136.09 136.09 0 0 0 4.639-11.202 13.783 13.783 0 0 1 10.23-8.842l41.85-8.372a13.706 13.706 0 0 0 10.998-13.44v-32.368a13.706 13.706 0 0 0-10.998-13.45zM801.29 882.29c-45.45 0-82.288-36.839-82.294-82.284s36.834-82.294 82.284-82.294a81.761 81.761 0 0 1 58.189 24.1 82.314 82.314 0 0 1 24.105 58.184c0.005 45.445-36.834 82.294-82.284 82.294z" p-id="13302"></path></svg>