<?xml version="1.0" standalone="no"?><!DOCTYPE svg PUBLIC "-//W3C//DTD SVG 1.1//EN" "http://www.w3.org/Graphics/SVG/1.1/DTD/svg11.dtd"><svg t="1755767652855" class="icon" viewBox="0 0 1024 1024" version="1.1" xmlns="http://www.w3.org/2000/svg" p-id="3145" xmlns:xlink="http://www.w3.org/1999/xlink" width="200" height="200"><path d="M960.66315 255.25c14.408-30.717-0.146-66.774-32.62-80.451L561.40415 10.459a122.36 122.36 0 0 0-99.028 0L95.81015 174.799a62.46 62.46 0 0 0-32.546 30.79c-14.408 30.719 0.146 66.776 32.546 80.452l385.728 172.02c9.362 4.68 19.747 7.314 30.499 7.46a77.007 77.007 0 0 0 30.425-7.46l385.728-172.02a63.19 63.19 0 0 0 32.473-30.864M440.50815 511.963L92.73815 357.277a63.85 63.85 0 0 0-60.045 0A62.313 62.313 0 0 0 0.00015 411.18v394.724a62.167 62.167 0 0 0 35.545 56.316l348.5 154.905a64.361 64.361 0 0 0 28.378 6.802 66.482 66.482 0 0 0 31.01-8.923 63.264 63.264 0 0 0 32.4-53.902V565.866a63.63 63.63 0 0 0-35.325-53.903M1023.92715 805.977V411.326a62.679 62.679 0 0 0-32.693-53.902 63.264 63.264 0 0 0-58.875-1.39l-350.183 155.93a62.898 62.898 0 0 0-34.083 53.975v396.406c0.293 22.014 12.507 42.42 32.4 53.902 9.508 5.047 20.186 7.753 31.01 7.753 9.874 0 19.675-2.194 28.378-6.802l349.89-154.978a62.167 62.167 0 0 0 34.156-56.243" p-id="3146"></path></svg>