<?xml version="1.0" encoding="UTF-8"?>
<svg version="1.1" xmlns="http://www.w3.org/2000/svg" width="200" height="200">
<path d="M0 0 C3.36219323 4.10960197 3.42899269 8.08911603 3.38818359 13.18334961 C3.39344055 13.99374191 3.39869751 14.80413422 3.40411377 15.63908386 C3.41728666 18.31036822 3.40858459 20.98105361 3.3984375 23.65234375 C3.40045921 25.51412571 3.40337147 27.3759069 3.40713501 29.23768616 C3.41155485 33.13729399 3.40513896 37.03669548 3.39111328 40.9362793 C3.37403351 45.9275378 3.38385707 50.91831189 3.40183067 55.90955257 C3.41268782 59.75378548 3.4092131 63.59790417 3.4014473 67.44214058 C3.39945001 69.28209046 3.40188796 71.1220508 3.40888596 72.96198845 C3.41653092 75.53735561 3.4048534 78.1119463 3.38818359 80.68725586 C3.39425629 81.44329102 3.40032898 82.19932617 3.40658569 82.97827148 C3.34985262 87.72517497 2.50255469 90.9654874 0 95 C-3.12893654 97.89601323 -6.49544313 99.97896974 -10.21875 102.03125 C-11.22220459 102.58804443 -12.22565918 103.14483887 -13.25952148 103.71850586 C-14.32887939 104.30639893 -15.3982373 104.89429199 -16.5 105.5 C-18.77253929 106.76099117 -21.04466888 108.02272096 -23.31640625 109.28515625 C-24.44836426 109.91309082 -25.58032227 110.54102539 -26.74658203 111.18798828 C-31.32831582 113.7398139 -35.88574506 116.3326819 -40.4375 118.9375 C-41.2639502 119.40768555 -42.09040039 119.87787109 -42.94189453 120.36230469 C-47.34330941 122.87380386 -51.72002891 125.4205815 -56.0683136 128.02320862 C-58.42093422 129.42934216 -60.78020756 130.82410635 -63.1399231 132.21829224 C-64.83612455 133.22688396 -66.52257508 134.25181735 -68.20874023 135.27709961 C-78.35993458 141.26643767 -78.35993458 141.26643767 -84 140 C-86.40945444 138.35438765 -87.79631941 137.06497693 -88.35727692 134.13191986 C-88.49421005 131.71780536 -88.4943171 129.33474007 -88.45410156 126.91699219 C-88.45468567 125.99957245 -88.45526978 125.08215271 -88.45587158 124.13693237 C-88.45308631 121.10652748 -88.42197308 118.07710792 -88.390625 115.046875 C-88.3831642 112.94509417 -88.37747051 110.84330638 -88.37347412 108.74151611 C-88.35820524 103.2109861 -88.31891228 97.68087661 -88.2746582 92.1505127 C-88.23373275 86.50664967 -88.21546891 80.86271866 -88.1953125 75.21875 C-88.15241952 64.14564862 -88.08415274 53.07285929 -88 42 C-85.13511393 40.40292228 -82.26929732 38.80752141 -79.40332031 37.21240234 C-78.59887482 36.76392441 -77.79442932 36.31544647 -76.96560669 35.8533783 C-70.61915928 32.32275046 -64.21431344 28.93535186 -57.75 25.625 C-49.58658611 21.415573 -41.48523572 17.11393105 -33.4375 12.6875 C-30.78755621 11.23955345 -28.13617243 9.79431691 -25.48339844 8.3515625 C-23.85737268 7.46661573 -22.23295547 6.57870542 -20.61035156 5.6875 C-18.43744078 4.50143356 -16.2529086 3.34085101 -14.0625 2.1875 C-13.13232056 1.67159302 -13.13232056 1.67159302 -12.18334961 1.14526367 C-7.78522192 -1.12374148 -4.73272238 -1.47506028 0 0 Z " fill="#BEBEBE" transform="translate(193,60)"/>
<path d="M0 0 C3.10766602 1.30004883 3.10766602 1.30004883 6.25390625 2.95703125 C6.82780594 3.25588226 7.40170563 3.55473328 7.99299622 3.86264038 C9.85502134 4.83579916 11.70870308 5.82377058 13.5625 6.8125 C14.86566184 7.49788676 16.16921487 8.1825302 17.47314453 8.86645508 C26.02760644 13.36622274 34.52743381 17.96719602 42.99414062 22.62988281 C50.76655868 26.90442294 58.62174411 31.01173121 66.50341797 35.08081055 C67.4110791 35.55043213 68.31874023 36.02005371 69.25390625 36.50390625 C70.05127197 36.91455322 70.8486377 37.3252002 71.67016602 37.74829102 C72.82343384 38.36788696 72.82343384 38.36788696 74 39 C74.85970901 39.33935074 75.71941803 39.67870148 76.60517883 40.02833557 C79 42 79 42 79.63491821 45.85775757 C79.66470411 47.50435385 79.66655837 49.15159065 79.64697266 50.79833984 C79.65573425 51.69782852 79.66449585 52.5973172 79.67352295 53.52406311 C79.69556532 56.50350915 79.68094459 59.48147583 79.6640625 62.4609375 C79.66742983 64.52975754 79.67228176 66.59857566 79.67855835 68.66738892 C79.68593674 73.00696617 79.67519507 77.34602932 79.65185547 81.68554688 C79.62340301 87.24668114 79.63974362 92.80660711 79.66971779 98.36769676 C79.68779488 102.64172449 79.68203015 106.91546633 79.66907883 111.18950272 C79.66574412 113.23961149 79.66983414 115.28974625 79.68147659 117.33982468 C79.69418785 120.20820446 79.67480267 123.07463626 79.64697266 125.94287109 C79.66215439 127.21326485 79.66215439 127.21326485 79.67764282 128.50932312 C79.60016011 132.8236437 79.37744961 134.51278194 76.64750671 138.03663635 C74 140 74 140 70.99291992 140.47094727 C67.78400968 139.96601311 65.8732229 139.15429282 63.11328125 137.46484375 C62.18894287 136.91046631 61.26460449 136.35608887 60.31225586 135.78491211 C59.32233643 135.17526611 58.33241699 134.56562012 57.3125 133.9375 C55.15522334 132.64320039 52.99630651 131.35163142 50.8359375 130.0625 C49.71413086 129.39089844 48.59232422 128.71929687 47.43652344 128.02734375 C41.83111133 124.72048512 36.13645416 121.57948868 30.4375 118.4375 C28.18358802 117.18751033 25.92968175 115.93751038 23.67578125 114.6875 C19.24398494 112.23451918 14.80237237 109.80046396 10.35546875 107.375 C8.27844838 106.22952462 6.20161661 105.08370718 4.125 103.9375 C3.17423584 103.42566162 2.22347168 102.91382324 1.24389648 102.38647461 C-4.85576903 99.00049464 -9.69753421 95.90739736 -12 89 C-12.10648067 86.33416548 -12.15724599 83.69408913 -12.16113281 81.02783203 C-12.16609772 80.21612549 -12.17106262 79.40441895 -12.17617798 78.56811523 C-12.19078984 75.88133905 -12.19759973 73.1946219 -12.203125 70.5078125 C-12.20887695 68.64077757 -12.21463468 66.77374266 -12.22039795 64.90670776 C-12.23090495 60.99102503 -12.23674969 57.07536282 -12.24023438 53.15966797 C-12.24572059 48.14363999 -12.26975261 43.12788326 -12.29820633 38.11194038 C-12.31683427 34.25490528 -12.32203838 30.39793551 -12.32357025 26.54085922 C-12.3265966 24.69169506 -12.33462455 22.84253204 -12.34775543 20.99341202 C-12.36482037 18.40571724 -12.36293477 15.81868534 -12.35644531 13.23095703 C-12.3656601 12.46818451 -12.37487488 11.70541199 -12.3843689 10.91952515 C-12.34921472 6.44204049 -11.78147197 3.55435022 -9 0 C-5.84777943 -1.57611029 -3.39609426 -0.67393482 0 0 Z " fill="#BEBEBE" transform="translate(16,60)"/>
<path d="M0 0 C1.55934868 0.71338649 3.11942436 1.42518572 4.68017578 2.13549805 C8.88241127 4.05420338 13.07307493 5.99701609 17.26165771 7.9453125 C20.9587255 9.66157635 24.6619476 11.36435594 28.36503601 13.06758118 C36.4674068 16.79495972 44.56326365 20.53623872 52.6484375 24.30078125 C53.77588127 24.82484558 53.77588127 24.82484558 54.92610168 25.35949707 C56.30662544 26.00343341 57.6851585 26.65166295 59.06121826 27.30508423 C60.82409072 28.13416359 62.60424248 28.92621556 64.38525391 29.71557617 C66.9375 31.1875 66.9375 31.1875 68.0625 34.625 C67.9375 38.1875 67.9375 38.1875 66.26782227 40.22998047 C63.78627993 42.31452803 61.44065618 43.6556502 58.52734375 45.0703125 C57.46588135 45.59197998 56.40441895 46.11364746 55.31079102 46.65112305 C54.17697998 47.19937744 53.04316895 47.74763184 51.875 48.3125 C49.48620522 49.48674739 47.09816113 50.66241661 44.7109375 51.83984375 C43.54272461 52.41460449 42.37451172 52.98936523 41.17089844 53.58154297 C37.07806632 55.61436158 33.03211184 57.72485347 29 59.875 C22.72348907 63.21585125 16.41602097 66.49269565 10.08984375 69.73828125 C9.30094254 70.14310226 8.51204132 70.54792328 7.69923401 70.9650116 C3.69417682 73.01933333 -0.31228869 75.07086823 -4.32006836 77.11987305 C-5.80715238 77.88195289 -7.29421391 78.64407663 -8.78125 79.40625 C-9.47102432 79.75790726 -10.16079865 80.10956451 -10.87147522 80.47187805 C-13.71266321 81.929664 -16.4018275 83.41371833 -19.0625 85.1875 C-25.06394541 85.05922483 -29.97890846 81.8483774 -35.125 79.0625 C-37.19619821 77.96145597 -39.26783346 76.86123379 -41.33984375 75.76171875 C-42.43409668 75.17825684 -43.52834961 74.59479492 -44.65576172 73.99365234 C-49.87544557 71.22632963 -55.12517203 68.51758847 -60.37600708 65.81002808 C-62.19173025 64.8728165 -64.00608767 63.93301084 -65.82006836 62.99243164 C-71.59940267 59.99739413 -77.38540406 57.01730084 -83.19412231 54.07957458 C-85.8812608 52.71957146 -88.56475939 51.35247361 -91.24798584 49.98477173 C-92.53056124 49.33355503 -93.81492494 48.68584727 -95.10113525 48.0418396 C-96.88697551 47.14739607 -98.66630378 46.23998644 -100.4453125 45.33203125 C-101.45996582 44.82003174 -102.47461914 44.30803223 -103.52001953 43.78051758 C-106.13651396 42.14112579 -107.51298223 40.84032396 -109.0625 38.1875 C-109.25 35.25 -109.25 35.25 -108.0625 32.1875 C-103.14339453 28.26198693 -97.16656322 25.66558577 -91.47265625 23.0703125 C-90.66276245 22.69581467 -89.85286865 22.32131683 -89.01843262 21.93547058 C-86.38994626 20.72193934 -83.75784519 19.51654233 -81.125 18.3125 C-79.29476234 17.47307077 -77.46460369 16.63346926 -75.63452148 15.79370117 C-72.84349778 14.513289 -70.0521753 13.23355926 -67.25965881 11.95640564 C-62.05525121 9.57350014 -56.86658522 7.16134362 -51.69581604 4.70629883 C-48.71023865 3.29015324 -45.71807851 1.88829445 -42.724823 0.48846436 C-41.34029852 -0.16328253 -39.95878769 -0.82147571 -38.58059692 -1.48651123 C-23.15228915 -8.92107997 -15.00259016 -7.02225208 0 0 Z " fill="#BEBEBE" transform="translate(121.0625,6.8125)"/>
</svg>
