<?xml version="1.0" encoding="UTF-8"?>
<svg version="1.1" xmlns="http://www.w3.org/2000/svg" width="200" height="200">
<path d="M0 0 C8.01305405 4.71609084 11.95523882 12.64500516 14.3125 21.375 C15 25 15 25 15 29 C15.66386719 28.72285156 16.32773438 28.44570313 17.01171875 28.16015625 C17.89472656 27.79792969 18.77773437 27.43570312 19.6875 27.0625 C20.55761719 26.70285156 21.42773438 26.34320312 22.32421875 25.97265625 C32.6246412 22.2284151 43.8957538 23.16872393 54 27 C55.485 27.495 55.485 27.495 57 28 C57.14695312 27.17757813 57.29390625 26.35515625 57.4453125 25.5078125 C59.27119672 16.42036575 62.04539244 8.53542987 68.8125 1.9375 C72.88359529 -0.53708734 76.25415055 -1.29056221 81 -1 C85.42046614 0.70790737 88.62792221 3.92806191 91 8 C94.47934333 16.83217923 96.26877446 25.52996446 95.8515625 35.0078125 C95.81675781 35.84957031 95.78195313 36.69132812 95.74609375 37.55859375 C95.66493744 39.27858384 95.56050746 40.99762356 95.43359375 42.71484375 C95.2648297 47.66757741 95.2648297 47.66757741 97.46850586 51.96386719 C98.69703131 53.14613425 99.95661234 54.29697875 101.24511719 55.41357422 C103.68058205 57.61525072 104.92048713 60.05128541 106.3125 63 C106.78300781 63.969375 107.25351563 64.93875 107.73828125 65.9375 C110.30018072 72.15585661 111.3621641 77.65675797 111.3125 84.3125 C111.30976074 85.05798096 111.30702148 85.80346191 111.30419922 86.5715332 C111.17114279 93.61511253 109.47678487 99.44811872 106.78515625 105.921875 C105.84004156 109.62710077 106.3619069 111.07428449 107.8125 114.5625 C111.8121353 125.53099139 112.60341637 138.1285602 107.64453125 148.9609375 C107.16371094 149.94320312 106.68289062 150.92546875 106.1875 151.9375 C103.52618077 157.89637222 104.2827303 161.56690734 106.08203125 167.69921875 C108.26077177 175.5334134 109.43883382 185.33280418 106 193 C103 195 103 195 99.4375 194.875 C96 194 96 194 94.77734375 192.3125 C93.80507905 189.42013465 93.95039385 187.16922022 94.125 184.125 C94.24814864 177.69229471 92.9616176 172.37713773 90.97265625 166.2890625 C88.40357676 157.60165314 88.40357676 157.60165314 90.1796875 152.83203125 C90.73914063 151.83558594 91.29859375 150.83914062 91.875 149.8125 C96.45165905 141.52129675 97.60662947 133.28335288 95.2109375 123.9140625 C93.79417602 119.96659732 92.17246245 116.32113698 90.1875 112.625 C89 110 89 110 89 107.5 C90.35955942 104.10110144 92.65896931 101.79781716 95 99 C98.25887046 91.06000289 98.35193944 81.70537717 95.4375 73.625 C92.24322897 66.79780804 88.06382137 61.44491955 80.94213867 58.59643555 C76.9663496 57.37546098 72.82890375 57.24043586 68.69726562 57.00390625 C65.00947434 56.67407525 63.30451198 56.30451198 60.6484375 53.6484375 C60.10445313 52.77445313 59.56046875 51.90046875 59 51 C58.61457031 50.3915625 58.22914062 49.783125 57.83203125 49.15625 C57.49558594 48.6096875 57.15914063 48.063125 56.8125 47.5 C53.15984708 42.30461168 47.18861751 39.17370332 41 38 C31.90224896 37.10054649 23.06399699 38.63745752 15.625 44.25 C12.90821673 47.09615391 11.00211131 49.91625595 9.078125 53.328125 C8 55 8 55 6 56 C3.62762303 56.29292185 1.25198496 56.55967953 -1.125 56.8125 C-10.51602476 57.98526541 -16.46234126 60.28165434 -22.5234375 67.7265625 C-27.05188403 74.69893256 -28.02966632 82.71736408 -26.4609375 90.765625 C-25.12951114 96.23764104 -23.61178437 99.6409499 -20 104 C-19.54940026 108.6782855 -20.50778981 111.82588414 -22.4375 116.0625 C-26.88317241 125.90377482 -27.32233986 135.49701766 -23.93359375 145.79296875 C-22.98135492 148.2583297 -22.98135492 148.2583297 -20.8125 151.125 C-18.46657409 154.84612386 -18.23767983 157.77393383 -19 162 C-19.61368528 163.63741139 -20.26301869 165.26168024 -20.9375 166.875 C-23.34220861 172.84473117 -23.5273341 178.53635876 -23.58374023 184.89404297 C-23.69789589 190.61169876 -23.69789589 190.61169876 -25.33569336 192.71679688 C-27.90067654 194.6944339 -29.86675582 194.39165552 -33 194 C-35.28367999 192.50379587 -35.86493299 191.48838798 -36.58984375 188.8671875 C-37.0990895 185.30731724 -36.98221308 181.88478161 -36.75 178.3125 C-36.70697754 177.60569092 -36.66395508 176.89888184 -36.61962891 176.1706543 C-36.25135587 171.20576718 -35.32979951 166.77833543 -33.5234375 162.11328125 C-32.45159661 157.78592363 -34.26297577 154.36994457 -36.0625 150.5 C-40.55121975 138.31633211 -38.84695083 124.49326633 -35.15356445 112.35180664 C-33.41392902 106.12101375 -34.99793253 102.43532217 -38 97 C-41.20095159 88.05324091 -39.90409923 74.4954369 -36 66 C-31.55049804 57.21912445 -31.55049804 57.21912445 -28.48754883 54.81079102 C-25.64039796 52.52013064 -24.18684379 50.95693738 -23.47192383 47.29541016 C-23.29061534 43.99875106 -23.27253935 40.7388104 -23.3125 37.4375 C-23.27933257 35.09361432 -23.23776755 32.74983131 -23.1875 30.40625 C-23.16429687 29.2925 -23.14109375 28.17875 -23.1171875 27.03125 C-22.74933353 17.51609389 -20.34999536 9.27569801 -14 2 C-9.77615717 -1.88136909 -5.25895876 -1.69445583 0 0 Z M-5 11 C-11.38942214 17.81538362 -11.29186492 25.66899519 -11.125 34.5 C-11.11597656 35.4178125 -11.10695313 36.335625 -11.09765625 37.28125 C-11.07432432 39.52111556 -11.04159235 41.76041183 -11 44 C-9.01926635 43.719172 -7.04041552 43.42503386 -5.0625 43.125 C-3.96035156 42.96257813 -2.85820313 42.80015625 -1.72265625 42.6328125 C-0.37494141 42.31957031 -0.37494141 42.31957031 1 42 C3.79305674 36.41388653 2.68809622 26.76941695 1.2109375 20.82421875 C-0.33774957 16.83428069 -1.80721647 13.90003547 -5 11 Z M76 11 C69.43998403 20.41437407 68.33156128 28.63654172 69 40 C69.33 40.99 69.66 41.98 70 43 C74.29 43.33 78.58 43.66 83 44 C83.76893668 28.66635578 83.76893668 28.66635578 80 14 C78.0021593 12.18719478 78.0021593 12.18719478 76 11 Z " fill="#000000" transform="translate(64,3)"/>
<path d="M0 0 C6.23372082 4.39477318 10.31819099 10.08092843 11.74609375 17.6640625 C12.03554006 23.55718939 10.4865667 28.89044401 6.78515625 33.4453125 C-0.54312011 40.59076284 -9.5499177 42.88358661 -19.59375 43.02734375 C-29.94143272 42.87951971 -39.63646007 40.79713368 -47.1328125 33.30078125 C-51.55047815 28.15816534 -52.1470321 23.74747307 -51.94140625 17.140625 C-51.22264677 10.5536374 -46.98980303 5.21544802 -41.94140625 1.14453125 C-28.97487273 -7.71195586 -13.54780052 -7.51106 0 0 Z M-41.46875 13.83984375 C-43.0656705 17.45392698 -43.2648574 19.6052072 -42.65625 23.52734375 C-40.13150927 27.87849267 -36.64349745 31.31363125 -31.83203125 33.03125 C-22.30329478 35.20387034 -13.07452445 35.38982837 -4.34375 30.77734375 C-1.24828617 28.18579263 0.58796659 26.17937323 2.34375 22.52734375 C2.6727566 18.44284716 1.82962562 15.39787091 -0.15625 11.83984375 C-6.16404903 6.28262964 -13.07525557 3.13431105 -21.3046875 3.2421875 C-29.24911197 4.20554794 -36.51515655 7.51974176 -41.46875 13.83984375 Z " fill="#000000" transform="translate(119.65625,88.47265625)"/>
<path d="M0 0 C2.875 2.0625 2.875 2.0625 5 5 C5.51749792 8.68717269 5.4590889 10.97380129 3.9375 14.375 C1.03326481 16.81081016 -1.25957491 16.93550991 -5 17 C-8.62887172 15.6290929 -9.6991961 14.6016078 -11.4375 11.125 C-12.08564446 7.52419742 -11.85599059 6.12143872 -10 3 C-6.90466819 -0.20587937 -4.36974334 -0.71342748 0 0 Z " fill="#000000" transform="translate(64,84)"/>
<path d="M0 0 C2.875 2.0625 2.875 2.0625 5 5 C5.51749792 8.68717269 5.4590889 10.97380129 3.9375 14.375 C1.03326481 16.81081016 -1.25957491 16.93550991 -5 17 C-7.37633793 15.86349056 -9.14441029 14.85558971 -11 13 C-11.433564 9.94647067 -11.46917899 7.04966347 -11 4 C-7.79382821 0.13373402 -4.93752469 -0.92578588 0 0 Z " fill="#000000" transform="translate(141,84)"/>
<path d="M0 0 C1.65322266 0.01740234 1.65322266 0.01740234 3.33984375 0.03515625 C4.99693359 0.04869141 4.99693359 0.04869141 6.6875 0.0625 C7.54214844 0.07410156 8.39679688 0.08570312 9.27734375 0.09765625 C9.60734375 1.74765625 9.93734375 3.39765625 10.27734375 5.09765625 C8.29734375 6.08765625 8.29734375 6.08765625 6.27734375 7.09765625 C6.29796875 8.04640625 6.31859375 8.99515625 6.33984375 9.97265625 C6.27734375 13.09765625 6.27734375 13.09765625 5.27734375 15.09765625 C2.90234375 15.22265625 2.90234375 15.22265625 0.27734375 15.09765625 C-1.72265625 13.09765625 -1.72265625 13.09765625 -1.84765625 9.97265625 C-1.80640625 9.02390625 -1.76515625 8.07515625 -1.72265625 7.09765625 C-2.71265625 6.76765625 -3.70265625 6.43765625 -4.72265625 6.09765625 C-3.65171431 0.13097971 -3.65171431 0.13097971 0 0 Z " fill="#000000" transform="translate(96.72265625,100.90234375)"/>
</svg>
