<?xml version="1.0" standalone="no"?><!DOCTYPE svg PUBLIC "-//W3C//DTD SVG 1.1//EN" "http://www.w3.org/Graphics/SVG/1.1/DTD/svg11.dtd"><svg t="1763624086292" class="icon" viewBox="0 0 1026 1024" version="1.1" xmlns="http://www.w3.org/2000/svg" p-id="15220" width="128.25" height="128" xmlns:xlink="http://www.w3.org/1999/xlink"><path d="M950.857 394.971L826.514 833.83C819.2 855.77 789.943 877.714 768 877.714H109.714c-7.314 0-14.628 0-21.943-7.314 0-7.314-7.314-14.629 0-21.943L212.114 409.6c7.315-21.943 36.572-43.886 58.515-43.886h658.285c7.315 0 14.629 0 14.629 7.315 7.314 0 7.314 7.314 7.314 21.942zM73.143 109.714c0-21.943 14.628-36.571 36.571-36.571h234.057L409.6 197.486c0 14.628 14.629 21.943 29.257 21.943h402.286c21.943 0 36.571 14.628 36.571 36.571v36.571H270.63c-51.2 0-109.715 43.886-124.343 102.4L73.143 643.657V109.714z m936.228 219.429c-14.628-21.943-36.571-29.257-58.514-36.572V256c0-58.514-51.2-109.714-109.714-109.714H460.8L394.971 21.943C394.971 7.314 380.343 0 365.714 0h-256C51.2 0 0 51.2 0 109.714v731.429c0 36.571 21.943 73.143 43.886 87.771H51.2c14.629 14.629 36.571 21.943 58.514 21.943H768c58.514 0 109.714-43.886 131.657-102.4L1024 409.6c7.314-29.257 0-58.514-14.629-80.457z" p-id="15221"></path></svg>