<?xml version="1.0" standalone="no"?><!DOCTYPE svg PUBLIC "-//W3C//DTD SVG 1.1//EN" "http://www.w3.org/Graphics/SVG/1.1/DTD/svg11.dtd"><svg class="icon" width="200px" height="200.00px" viewBox="0 0 1024 1024" version="1.1" xmlns="http://www.w3.org/2000/svg"><path d="M894.33 451.45l-108.5 336.2c-6.38 16.81-31.91 33.62-51.06 33.62H160.38c-6.37 0-12.76 0-19.14-5.6 0-5.6-6.38-11.21 0-16.81l108.49-336.2c6.39-16.81 31.92-33.62 51.06-33.62h574.4c6.38 0 12.76 0 12.76 5.6 6.38 0 6.38 5.61 6.38 16.81zM128.48 232.92c0-16.8 12.76-28 31.9-28h204.23l57.44 95.26c0 11.2 12.77 16.81 25.53 16.81h351c19.14 0 31.91 11.2 31.91 28v28h-529.7c-44.67 0-95.73 33.62-108.5 78.44L128.48 642zM945.39 401c-12.77-16.8-31.92-22.41-51.06-28v-28c0-44.82-44.67-84.05-95.73-84.05H466.73l-57.44-95.25c0-11.21-12.77-16.81-25.53-16.81H160.38c-51 0-95.73 39.22-95.73 84v560.37c0 28 19.15 56 38.3 67.24h6.38c12.76 11.2 31.91 16.81 51.05 16.81h574.39c51.06 0 95.74-33.62 114.89-78.45l108.49-336.2c6.38-22.41 0-44.83-12.76-61.64z m0 0" fill="#888888" /></svg>