<?xml version="1.0" standalone="no"?><!DOCTYPE svg PUBLIC "-//W3C//DTD SVG 1.1//EN" "http://www.w3.org/Graphics/SVG/1.1/DTD/svg11.dtd"><svg t="1781664478037" class="icon" viewBox="0 0 1024 1024" version="1.1" xmlns="http://www.w3.org/2000/svg" p-id="13529" xmlns:xlink="http://www.w3.org/1999/xlink" width="128" height="128"><path d="M588.468907 563.626667a418.133333 418.133333 0 0 1 114.602666 75.776c-22.869333 17.664-41.984 40.106667-56.576 65.792-59.562667-55.04-137.728-91.989333-223.573333-88.576-122.453333 4.778667-337.749333 121.088-337.749333 315.733333v-7.509333a43.178667 43.178667 0 0 1-42.154667 44.032 43.093333 43.093333 0 0 1-42.154667-44.032 45.226667 45.226667 0 0 1 4.352-19.626667c21.333333-154.112 119.296-282.453333 252.245334-341.589333a311.722667 311.722667 0 0 1-130.048-255.317334C127.412907 138.069333 259.679573 0 422.92224 0 586.25024 0 718.431573 138.069333 718.431573 308.309333a311.296 311.296 0 0 1-129.962666 255.317334z m-165.546667-475.562667c-116.565333 0-211.029333 98.56-211.029333 220.16s94.549333 220.16 211.029333 220.16c116.650667 0 211.114667-98.56 211.114667-220.16s-94.464-220.16-211.114667-220.16zM837.983573 630.186667c-103.082667 0-186.88 88.405333-186.88 196.864 0 108.544 83.797333 196.949333 186.88 196.949333C940.980907 1024 1024.863573 935.594667 1024.863573 827.050667c0-108.458667-83.882667-196.864-186.88-196.864z m116.053334 141.994666l-139.52 147.114667a8.277333 8.277333 0 0 1-12.117334 0l-18.261333-19.285333-60.586667-63.829334a9.216 9.216 0 0 1 0-12.8l18.261334-19.285333a8.277333 8.277333 0 0 1 12.117333 0l54.528 57.429333 115.2-121.344c3.413333-3.413333 8.704-3.413333 12.117333 0l18.261334 19.285334c3.413333 3.584 3.413333 9.216 0 12.8z" p-id="13530" fill="#4d6bfe"></path></svg>