<?xml version="1.0" standalone="no"?><!DOCTYPE svg PUBLIC "-//W3C//DTD SVG 1.1//EN" "http://www.w3.org/Graphics/SVG/1.1/DTD/svg11.dtd"><svg t="1756278852144" class="icon" viewBox="0 0 1024 1024" version="1.1" xmlns="http://www.w3.org/2000/svg" p-id="73779" width="128" height="128" xmlns:xlink="http://www.w3.org/1999/xlink"><path d="M512 64C264.6 64 64 264.6 64 512s200.6 448 448 448 448-200.6 448-448S759.4 64 512 64z m-78 586c0 17.6-14.4 32-32 32s-32-14.4-32-32V374c0-17.6 14.4-32 32-32s32 14.4 32 32v276z m220 0c0 17.6-14.4 32-32 32s-32-14.4-32-32V374c0-17.6 14.4-32 32-32s32 14.4 32 32v276z" fill="#ebbb12" p-id="73780"></path></svg>