<?xml version="1.0" standalone="no"?><!DOCTYPE svg PUBLIC "-//W3C//DTD SVG 1.1//EN" "http://www.w3.org/Graphics/SVG/1.1/DTD/svg11.dtd"><svg t="1757989706464" class="icon" viewBox="0 0 1024 1024" version="1.1" xmlns="http://www.w3.org/2000/svg" p-id="67001" width="128" height="128" xmlns:xlink="http://www.w3.org/1999/xlink"><path d="M841.142857 368.152381c48.761905-31.695238 80.457143-85.333333 80.457143-146.285714 0-97.52381-78.019048-175.542857-175.542857-175.542857-70.704762 0-129.219048 41.447619-158.476191 99.961904 109.714286 34.133333 190.171429 134.095238 190.171429 256 0 63.390476-21.942857 121.904762-60.952381 170.666667 46.32381 29.257143 85.333333 65.828571 117.028571 109.714286h143.847619c24.380952 0 46.32381-19.504762 46.32381-46.32381v-9.752381c0-117.028571-75.580952-219.428571-182.857143-258.438095zM307.2 572.952381c-39.009524-46.32381-60.952381-107.27619-60.952381-170.666667 0-119.466667 80.457143-221.866667 190.171429-256-26.819048-58.514286-87.771429-99.961905-158.476191-99.961904-97.52381 0-175.542857 78.019048-175.542857 175.542857 0 60.952381 31.695238 114.590476 80.457143 146.285714C75.580952 407.161905 0 509.561905 0 629.028571v9.752381c0 24.380952 19.504762 46.32381 46.32381 46.32381h143.847619c31.695238-46.32381 70.704762-82.895238 117.028571-112.152381z" fill="#1014d7" p-id="67002"></path><path d="M631.466667 585.142857c58.514286-39.009524 99.961905-104.838095 99.961904-182.857143 0-119.466667-97.52381-216.990476-216.990476-216.990476s-216.990476 97.52381-216.990476 216.990476c0 75.580952 39.009524 143.847619 99.961905 182.857143C265.752381 633.904762 170.666667 760.685714 170.666667 909.409524v12.190476c0 31.695238 24.380952 56.07619 56.07619 56.07619h575.390476c31.695238 0 56.07619-24.380952 56.076191-56.07619v-12.190476c-2.438095-148.72381-95.085714-275.504762-226.742857-324.266667z" fill="#1014d7" p-id="67003"></path></svg>