<svg viewBox="0 0 1024 1024" xmlns="http://www.w3.org/2000/svg">
  <path d="M512 64c247.424 0 448 200.576 448 448s-200.576 448-448 448S64 759.424 64 512 264.576 64 512 64zM512 144c-203.2 0-368 164.8-368 368s164.8 368 368 368 368-164.8 368-368S715.2 144 512 144z"/>
  <path d="M651.904 694.784l-60.672-60.672A203.52 203.52 0 0 1 512 656c-112.768 0-204-91.232-204-204s91.232-204 204-204 204 91.232 204 204a203.52 203.52 0 0 1-21.888 79.232l60.672 60.672-42.56 42.56zM512 388c-68.48 0-124 55.52-124 124s55.52 124 124 124 124-55.52 124-124-55.52-124-124-124z"/>
</svg>
