<?xml version="1.0" standalone="no"?><!DOCTYPE svg PUBLIC "-//W3C//DTD SVG 1.1//EN" "http://www.w3.org/Graphics/SVG/1.1/DTD/svg11.dtd"><svg t="1783562161290" class="icon" viewBox="0 0 1024 1024" version="1.1" xmlns="http://www.w3.org/2000/svg" p-id="6234" width="128" height="128" xmlns:xlink="http://www.w3.org/1999/xlink"><path d="M934.826667 602.666667l-106.24-186.026667 45.653333-87.253333c6.186667-8.32 7.893333-20.48 5.333333-30.293334l-58.453333-105.6a24.96 24.96 0 0 0-20.48-11.52H583.466667l-48.64-85.12c-3.413333-6.613333-10.026667-11.306667-17.493334-12.16h-114.773333c-8.533333 0-14.506667 6.4-18.773333 13.653334l-1.706667 2.986666-108.586667 186.026667H169.386667c-8.533333 0-16.64 4.053333-21.333334 11.52l-59.946666 106.24c-3.84 7.68-3.84 16.64 0 24.32l107.733333 187.52-48.64 85.12c-3.84 7.68-3.84 16.64 0 24.32l55.466667 97.28c4.48 7.466667 12.586667 12.16 21.333333 12.16h217.173333l52.266667 91.093333c4.053333 6.826667 11.093333 11.306667 18.986667 12.16h123.093333c8.533333 0 16.213333-4.693333 20.48-12.16l107.093333-187.733333h95.786667c8.533333-0.853333 16.213333-5.546667 20.48-12.8l55.466667-97.92c5.12-7.893333 5.12-17.92 0-25.813333z m-134.4 12.16l-55.466667-102.4-227.84 401.493333-62.293333-102.4H227.2l54.826667-99.413333h116.053333L170.24 311.893333h119.253333l113.066667-202.026666 56.96 99.413333-58.453333 102.4h455.68l-57.6 101.76 114.773333 201.173333h-113.066667z" fill="#605BEC" p-id="6235" data-spm-anchor-id="a313x.search_index.0.i24.76cc3a81J9zGNO" class="selected"></path><path d="M511.786667 653.44l142.08-227.626667H369.066667l142.72 227.626667z" fill="#605BEC" p-id="6236"></path></svg>