<?xml version="1.0" standalone="no"?><!DOCTYPE svg PUBLIC "-//W3C//DTD SVG 1.1//EN" "http://www.w3.org/Graphics/SVG/1.1/DTD/svg11.dtd"><svg t="1758677326082" class="icon" viewBox="0 0 1024 1024" version="1.1" xmlns="http://www.w3.org/2000/svg" p-id="39914" width="128" height="128" xmlns:xlink="http://www.w3.org/1999/xlink"><path d="M897.28288 4.032H126.72288A94.976 94.976 0 0 0 32.19488 99.072V398.08h67.584v-286.08c0-22.208 17.92-40.192 39.872-40.192H884.48288c21.952 0 39.872 17.984 39.872 40.128v749.248c0 22.144-17.92 40.192-39.872 40.192H139.52288a40.128 40.128 0 0 1-39.808-40.192V561.408h128.384a33.28 33.28 0 0 0 23.936-9.92l45.76-46.016 102.016 239.36c5.44 12.416 17.536 20.48 32.384 20.48a33.92 33.92 0 0 0 30.72-23.168l127.68-385.088 51.072 179.84a33.92 33.92 0 0 0 32.512 24.512h121.6a33.92 33.92 0 1 0 0-67.712h-96.064L625.47488 232.96a33.728 33.728 0 0 0-64.512-1.472L426.88288 635.904 340.29088 432.64a33.856 33.856 0 0 0-55.04-10.56L214.08288 493.696H65.85888a34.112 34.112 0 0 0-33.792 34.816v345.6a94.976 94.976 0 0 0 94.656 95.168h770.496a94.976 94.976 0 0 0 94.592-95.168V99.072A94.848 94.848 0 0 0 897.28288 4.032z" fill="#333333" fill-opacity=".65" p-id="39915"></path></svg>