<?xml version="1.0" standalone="no"?><!DOCTYPE svg PUBLIC "-//W3C//DTD SVG 1.1//EN" "http://www.w3.org/Graphics/SVG/1.1/DTD/svg11.dtd"><svg t="1753339015068" class="icon" viewBox="0 0 1024 1024" version="1.1" xmlns="http://www.w3.org/2000/svg" p-id="6065" xmlns:xlink="http://www.w3.org/1999/xlink" width="200" height="200"><path d="M136.53333333 85.33333333a51.2 51.2 0 0 1-34.13333333 48.29866667V375.46666667l73.728 187.2896L102.4 750.93333333c-37.54666667 0-68.26666667-30.72-68.26666667-68.1984v-239.06986666a68.26666667 68.26666667 0 0 1 34.13333334-58.9824V133.632A51.2 51.2 0 1 1 136.53333333 85.33333333z m855.04 1.70666667c0 23.2448-15.01866667 43.008-35.84 50.10773333V382.29333333c20.3776 11.84426667 34.13333333 33.92853333 34.13333334 59.05066667v239.27466667c0 37.54666667-30.72 68.26666667-68.26666667 68.26666666l-100.352-193.87733333L921.6 373.07733333V137.14773333a52.90666667 52.90666667 0 1 1 69.97333333-50.10773333z" fill="#F8312F" p-id="6066"></path><path d="M341.33333333 119.46666667A51.2 51.2 0 0 1 392.53333333 68.26666667h238.93333334a51.2 51.2 0 0 1 14.67733333 100.28373333c-9.45493333 2.79893333-19.456 3.54986667-28.91093333 6.3488l-104.20906667 30.85653333-106.496-30.99306666c-9.28426667-2.73066667-19.11466667-3.41333333-28.39893333-6.144A51.2 51.2 0 0 1 341.33333333 119.46666667z" fill="#FFB02E" p-id="6067"></path><path d="M718.50666667 989.86666667H305.49333333C193.19466667 989.86666667 102.4 899.072 102.4 786.77333333V376.49066667C102.4 262.82666667 194.56 170.66666667 308.224 170.66666667h407.89333333C829.44 170.66666667 921.6 262.82666667 921.6 376.49066667v410.624c0 111.95733333-90.79466667 202.752-203.09333333 202.752z" fill="#CDC4D6" p-id="6068"></path><path d="M281.4976 597.33333333h461.0048c79.53066667 0 144.96426667-65.50186667 144.96426667-145.06666666A145.3056 145.3056 0 0 0 742.5024 307.2H281.4976A145.3056 145.3056 0 0 0 136.53333333 452.26666667a145.3056 145.3056 0 0 0 144.96426667 145.06666666z m144.21333333 256h172.57813334C626.00533333 853.33333333 648.53333333 830.32746667 648.53333333 802.13333333s-22.528-51.2-50.24426666-51.2h-172.57813334C397.99466667 750.93333333 375.46666667 773.9392 375.46666667 802.13333333s22.528 51.2 50.24426666 51.2z" fill="#212121" p-id="6069"></path><path d="M315.73333333 375.46666667C292.18133333 375.46666667 273.06666667 394.58133333 273.06666667 418.13333333v85.33333334a42.66666667 42.66666667 0 1 0 85.33333333 0v-85.33333334c0-23.552-19.11466667-42.66666667-42.66666667-42.66666666z m392.53333334 0c-23.552 0-42.66666667 19.11466667-42.66666667 42.66666666v85.33333334a42.66666667 42.66666667 0 1 0 85.33333333 0v-85.33333334c0-23.552-19.11466667-42.66666667-42.66666666-42.66666666z" fill="#00A6ED" p-id="6070"></path></svg>