<?xml version="1.0" standalone="no"?><!DOCTYPE svg PUBLIC "-//W3C//DTD SVG 1.1//EN" "http://www.w3.org/Graphics/SVG/1.1/DTD/svg11.dtd"><svg t="1773712484828" class="icon" viewBox="0 0 1024 1024" version="1.1" xmlns="http://www.w3.org/2000/svg" p-id="15320" width="128" height="128" xmlns:xlink="http://www.w3.org/1999/xlink"><path d="M221.8496 460.8l150.3232-360.7552a12.8 12.8 0 0 1 23.6544 0L640 686.0288l90.5728-217.344A12.8 12.8 0 0 1 742.4 460.8h192a12.8 12.8 0 0 1 12.8 12.8v76.8a12.8 12.8 0 0 1-12.8 12.8h-132.2752l-150.2976 360.7552a12.8 12.8 0 0 1-23.6544 0L384 337.9456l-90.5728 217.3696A12.8 12.8 0 0 1 281.6 563.2H89.6a12.8 12.8 0 0 1-12.8-12.8v-76.8a12.8 12.8 0 0 1 12.8-12.8h132.2496z" fill="#2563eb" p-id="15321"></path></svg>