<?xml version="1.0" standalone="no"?><!DOCTYPE svg PUBLIC "-//W3C//DTD SVG 1.1//EN" "http://www.w3.org/Graphics/SVG/1.1/DTD/svg11.dtd"><svg t="1773712754732" class="icon" viewBox="0 0 1024 1024" version="1.1" xmlns="http://www.w3.org/2000/svg" p-id="32531" width="128" height="128" xmlns:xlink="http://www.w3.org/1999/xlink"><path d="M347.555 958.709a34.381 34.381 0 0 1-15.353-3.615 34.376 34.376 0 0 1-19.01-30.747V794.951C161.8 730.228 65.29 597.134 65.29 450.154 65.29 237.94 265.675 65.29 511.999 65.29s446.71 172.65 446.71 384.864c0 208.858-194.094 379.386-435.048 384.73l-155.453 116.92a34.305 34.305 0 0 1-20.653 6.905zM512 134.015c-208.422 0-377.985 141.82-377.985 316.14 0 125.05 88.507 238.598 225.47 289.285 13.472 4.984 22.432 17.844 22.432 32.223v83.833l109.43-82.306A34.363 34.363 0 0 1 512 766.285c208.422 0 377.985-141.82 377.985-316.13-0.001-174.32-169.564-316.14-377.986-316.14z" fill="#2563eb" p-id="32532"></path><path d="M490.389 675.17c-124.697 0-226.391-74.748-272.046-199.94l80.704-29.43c33.238 91.175 102.986 143.465 191.342 143.465v85.905z" fill="#2563eb" p-id="32533"></path></svg>