<?xml version="1.0" standalone="no"?><!DOCTYPE svg PUBLIC "-//W3C//DTD SVG 1.1//EN" "http://www.w3.org/Graphics/SVG/1.1/DTD/svg11.dtd"><svg t="1777515214032" class="icon" viewBox="0 0 1024 1024" version="1.1" xmlns="http://www.w3.org/2000/svg" p-id="7819" width="128" height="128" xmlns:xlink="http://www.w3.org/1999/xlink"><path d="M802.133333 546.133333H221.866667c-38.4 0-72.533333 34.133333-72.533334 72.533334v183.466666c0 38.4 34.133333 72.533333 72.533334 72.533334h584.533333c38.4 0 72.533333-34.133333 72.533333-72.533334v-183.466666c-4.266667-42.666667-38.4-72.533333-76.8-72.533334z m8.533334 217.6c0 21.333333-17.066667 42.666667-42.666667 42.666667H256c-21.333333 0-42.666667-17.066667-42.666667-42.666667v-110.933333c0-21.333333 17.066667-42.666667 42.666667-42.666667h512c21.333333 0 42.666667 17.066667 42.666667 42.666667v110.933333zM221.866667 494.933333h217.6v-64H256c-21.333333 0-42.666667-17.066667-42.666667-42.666666V281.6c0-21.333333 17.066667-42.666667 42.666667-42.666667h183.466667V174.933333H256c-59.733333 0-106.666667 51.2-106.666667 106.666667V426.666667c0 38.4 29.866667 68.266667 72.533334 68.266666zM580.266667 482.133333c174.933333 119.466667 375.466667-81.066667 256-256-8.533333-12.8-21.333333-25.6-34.133334-34.133333-174.933333-119.466667-375.466667 81.066667-256 256l34.133334 34.133333z m110.933333-260.266666c81.066667 0 145.066667 85.333333 98.133333 179.2-8.533333 17.066667-25.6 34.133333-46.933333 42.666666-89.6 34.133333-166.4-21.333333-166.4-106.666666 0-64 55.466667-115.2 115.2-115.2z" p-id="7820" fill="#2563eb"></path><path d="M691.2 332.8m-46.933333 0a46.933333 46.933333 0 1 0 93.866666 0 46.933333 46.933333 0 1 0-93.866666 0Z" p-id="7821" fill="#2563eb"></path></svg>