<?xml version="1.0" standalone="no"?><!DOCTYPE svg PUBLIC "-//W3C//DTD SVG 1.1//EN" "http://www.w3.org/Graphics/SVG/1.1/DTD/svg11.dtd"><svg t="1773712899362" class="icon" viewBox="0 0 1024 1024" version="1.1" xmlns="http://www.w3.org/2000/svg" p-id="36403" width="128" height="128" xmlns:xlink="http://www.w3.org/1999/xlink"><path d="M768 352h-10.666667V298.666667c0-135.253333-110.08-245.333333-245.333333-245.333334S266.666667 163.413333 266.666667 298.666667v53.333333H256A117.546667 117.546667 0 0 0 138.666667 469.333333v384c0 64.64 52.693333 117.333333 117.333333 117.333334h512c64.64 0 117.333333-52.693333 117.333333-117.333334V469.333333c0-64.64-52.693333-117.333333-117.333333-117.333333zM330.666667 298.666667c0-100.053333 81.28-181.333333 181.333333-181.333334s181.333333 81.28 181.333333 181.333334v53.333333h-362.666666V298.666667z m490.666666 554.666666a53.333333 53.333333 0 0 1-53.333333 53.333334H256A53.333333 53.333333 0 0 1 202.666667 853.333333V469.333333a53.333333 53.333333 0 0 1 53.333333-53.333333h512a53.333333 53.333333 0 0 1 53.333333 53.333333v384z" fill="#2563eb" p-id="36404"></path><path d="M512 544a32 32 0 0 0-32 32v170.666667a32 32 0 1 0 64 0v-170.666667a32 32 0 0 0-32-32z" fill="#2563eb" p-id="36405"></path></svg>