<?xml version="1.0" standalone="no"?><!DOCTYPE svg PUBLIC "-//W3C//DTD SVG 1.1//EN" "http://www.w3.org/Graphics/SVG/1.1/DTD/svg11.dtd"><svg t="1762740453369" class="icon" viewBox="0 0 1024 1024" version="1.1" xmlns="http://www.w3.org/2000/svg" p-id="3757" width="128" height="128" data-spm-anchor-id="a313x.search_index.0.i13.191e3a81y8MPlD" xmlns:xlink="http://www.w3.org/1999/xlink"><path d="M560 160.448l103.824 210.384L896 404.56 728 568.32l39.664 231.232L560 690.384l-207.664 109.168L392 568.32 224 404.56l232.176-33.728L560 160.448z" fill="#fcfaf5" p-id="3758" data-spm-anchor-id="a313x.search_index.0.i4.191e3a81y8MPlD" class=""></path><path d="M719.648 815.568a15.952 15.952 0 0 1-7.44-1.856L512 708.448l-200.208 105.28a16 16 0 0 1-23.216-16.864l38.24-222.96-161.984-157.888a16 16 0 0 1 8.864-27.28l223.84-32.528 100.112-202.848a16.656 16.656 0 0 1 28.704 0l100.096 202.848 223.84 32.528A16 16 0 0 1 859.168 416l-161.968 157.888 38.24 222.96a16 16 0 0 1-15.776 18.704zM512 674.368a15.872 15.872 0 0 1 7.44 1.856l178.96 94.08-34.176-199.264a16.016 16.016 0 0 1 4.608-14.16l144.8-141.136-200.096-29.088a16 16 0 0 1-12.064-8.752L512 196.592 422.528 377.92a16 16 0 0 1-12.064 8.752L210.4 415.728l144.8 141.152a16.016 16.016 0 0 1 4.592 14.144L325.6 770.32l178.96-94.096a15.872 15.872 0 0 1 7.44-1.856z" fill="#003A52" p-id="3759"></path><path d="M512 1008a496 496 0 1 1 496-496 496.56 496.56 0 0 1-496 496z m0-960a464 464 0 1 0 464 464A464.528 464.528 0 0 0 512 48z" fill="#003A52" p-id="3760"></path></svg>