<?xml version="1.0" standalone="no"?><!DOCTYPE svg PUBLIC "-//W3C//DTD SVG 1.1//EN" "http://www.w3.org/Graphics/SVG/1.1/DTD/svg11.dtd"><svg class="icon" width="200px" height="200.00px" viewBox="0 0 1024 1024" version="1.1" xmlns="http://www.w3.org/2000/svg"><path d="M831.2 63.5H192.9c-46.3 0-83.9 32-83.9 71.3v754.5c0 39.3 37.6 71.3 83.9 71.3h638.3c46.3 0 83.9-32 83.9-71.3V134.8c0-39.3-37.7-71.3-83.9-71.3z m-638.4 40.1h638.3c20.2 0 36.7 14 36.7 31.2V295H156.1V134.8c0-17.2 16.5-31.2 36.7-31.2zM410.1 703V547.6h198.2V703H410.1z m198.2 40.1v177.3H410.1V743.1h198.2z m0-408v172.4H410.1V335.1h198.2zM360.6 507.5H156.1V335.1h204.4v172.4z m0 40.1V703H156.1V547.6h204.5z m297.2 0h210.1V703H657.8V547.6z m0-40.1V335.1h210.1v172.4H657.8zM156.1 889.2V743.1h204.4v177.3H192.8c-20.2 0-36.7-14-36.7-31.2z m675.1 31.2H657.9V743.1H868v146.1c-0.1 17.2-16.6 31.2-36.8 31.2z" fill="#606266" /></svg>