<?xml version="1.0" standalone="no"?><!DOCTYPE svg PUBLIC "-//W3C//DTD SVG 1.1//EN" "http://www.w3.org/Graphics/SVG/1.1/DTD/svg11.dtd"><svg t="1756970731088" class="icon" viewBox="0 0 1024 1024" version="1.1" xmlns="http://www.w3.org/2000/svg" p-id="27276" width="128" height="128" xmlns:xlink="http://www.w3.org/1999/xlink"><path d="M511.884506 0.230988a497.231812 497.231812 0 0 0-511.884506 479.891724 461.655839 461.655839 0 0 0 160.475793 348.465378c-6.846455 12.413199-13.372983 23.162774-19.195669 32.696623a152.413612 152.413612 0 0 0-29.561331 73.135498 83.757102 83.757102 0 0 0 81.389637 85.868626h6.398556a368.940758 368.940758 0 0 0 190.612993-74.287239A543.877288 543.877288 0 0 0 511.884506 960.014437a497.231812 497.231812 0 0 0 511.884506-479.891725A497.231812 497.231812 0 0 0 511.884506 0.230988z m0 895.797885a479.059912 479.059912 0 0 1-135.905336-19.643567 330.54942 330.54942 0 0 1-176.728126 80.109925h-3.391235a19.515597 19.515597 0 0 1-20.219438-19.195669c0.895798-20.539366 33.208507-53.875844 65.009332-126.691415A405.5405 405.5405 0 0 1 63.985563 480.122712 432.79835 432.79835 0 0 1 511.884506 64.216551a432.79835 432.79835 0 0 1 447.898943 415.906161A432.79835 432.79835 0 0 1 511.884506 896.028873z" fill="#2c2c2c" p-id="27277"></path><path d="M511.884506 704.072184m-63.985563 0a63.985563 63.985563 0 1 0 127.971126 0 63.985563 63.985563 0 1 0-127.971126 0Z" fill="#2c2c2c" p-id="27278"></path><path d="M511.884506 576.101057a53.108018 53.108018 0 0 0 53.044032-51.18845l8.638051-237.130498A61.426141 61.426141 0 0 0 511.884506 224.180459a61.426141 61.426141 0 0 0-61.362155 63.665636l8.318123 237.066512A53.108018 53.108018 0 0 0 511.884506 576.101057z" fill="#2c2c2c" p-id="27279"></path></svg>