<?xml version="1.0" standalone="no"?><!DOCTYPE svg PUBLIC "-//W3C//DTD SVG 1.1//EN" "http://www.w3.org/Graphics/SVG/1.1/DTD/svg11.dtd"><svg class="icon" width="200px" height="200.00px" viewBox="0 0 1024 1024" version="1.1" xmlns="http://www.w3.org/2000/svg"><path d="M511.89 132.244c-51.238 0-100.96 10.042-147.785 29.847-45.212 19.123-85.81 46.493-120.666 81.348-34.856 34.856-62.226 75.454-81.348 120.666-19.805 46.824-29.847 96.547-29.847 147.784v379.866h380.67c51.13 0 100.746-10.02 147.472-29.783 45.116-19.082 85.628-46.394 120.41-81.176s62.094-75.294 81.177-120.41c19.763-46.726 29.783-96.342 29.783-147.472v-380.67H511.89z m318.468 380.67c0 175.04-142.406 317.444-317.445 317.444H193.64V511.89c0-175.483 142.766-318.249 318.248-318.249h318.469v319.272z"  /><path d="M704.723 378.798c33.855 0 61.399-27.543 61.399-61.398s-27.544-61.398-61.399-61.398-61.398 27.543-61.398 61.398 27.543 61.398 61.398 61.398z"  /></svg>