<?xml version="1.0" standalone="no"?><!DOCTYPE svg PUBLIC "-//W3C//DTD SVG 1.1//EN" "http://www.w3.org/Graphics/SVG/1.1/DTD/svg11.dtd"><svg class="icon" width="200px" height="200.00px" viewBox="0 0 1024 1024" version="1.1" xmlns="http://www.w3.org/2000/svg"><path d="M143.36 266.9056a20.48 20.48 0 0 1-20.48-20.48V166.4a43.5712 43.5712 0 0 1 43.52-43.52h80.0256a20.48 20.48 0 0 1 0 40.96H166.4a2.56 2.56 0 0 0-2.56 2.56v80.0256a20.48 20.48 0 0 1-20.48 20.48zM819.2 266.9056a20.48 20.48 0 0 0 20.48-20.48V166.4a43.5712 43.5712 0 0 0-43.52-43.52h-80.0256a20.48 20.48 0 0 0 0 40.96h80.0256a2.56 2.56 0 0 1 2.56 2.56v80.0256a20.48 20.48 0 0 0 20.48 20.48zM143.36 757.0944a20.48 20.48 0 0 0-20.48 20.48v80.0256a43.5712 43.5712 0 0 0 43.52 43.52h80.0256a20.48 20.48 0 0 0 0-40.96H166.4a2.56 2.56 0 0 1-2.56-2.56v-80.0256a20.48 20.48 0 0 0-20.48-20.48zM819.2 757.0944a20.48 20.48 0 0 1 20.48 20.48v80.0256a43.5712 43.5712 0 0 1-43.52 43.52h-80.0256a20.48 20.48 0 0 1 0-40.96h80.0256a2.56 2.56 0 0 0 2.56-2.56v-80.0256a20.48 20.48 0 0 1 20.48-20.48z" fill="#cdcdcd" /><path d="M658.8928 469.3504v-4.4032c-0.4096-9.3696-0.768-17.5104-0.768-24.2176 0-78.2336-66.9696-141.8752-149.3504-141.8752S358.8096 362.2912 358.8096 440.32c0 9.6768 0.512 20.48 1.4336 32.256 4.5568 73.8816 11.3664 185.4976-124.4672 247.3472a20.736 20.736 0 0 0-12.032 16.9984 21.4016 21.4016 0 0 0 8.6528 19.0464 20.9408 20.9408 0 0 0 20.8896 2.2528c161.28-73.4208 153.2928-206.8992 148.48-286.72v-1.024c-0.9216-11.4176-1.3824-21.4528-1.3824-29.7472 0-55.3472 48.5376-100.352 108.2368-100.352a111.6672 111.6672 0 0 1 78.9504 32.256 95.3344 95.3344 0 0 1 28.416 68.096c0 7.68 0.3584 16.9984 0.768 26.88v3.2768c2.7648 76.8 7.936 218.9824-85.6576 357.7856l-0.3584 0.5632a21.0432 21.0432 0 0 0 17.9712 31.9488 21.248 21.248 0 0 0 17.1008-9.0112c101.1712-150.3232 95.9488-301.5168 93.0816-382.8224z" fill="#cdcdcd" /><path d="M592.5888 458.0352l-0.3584-4.5568c-0.3584-4.8128-0.6656-8.96-0.6656-11.3664 0-45.4656-38.656-82.4832-86.2208-82.4832s-86.2208 37.0176-86.2208 82.4832c0 21.6064 0.512 40.96 0.9728 58.1632v1.1264c2.7648 107.52 4.096 161.8432-127.3856 266.24a20.8384 20.8384 0 1 0 25.6 32.7168c148.48-117.76 146.4832-186.9312 143.36-301.2096-0.512-19.4048-0.9216-37.0688-0.9216-56.832 0-22.5792 20.0192-40.96 44.6464-40.96s44.6976 18.3808 44.6976 40.96c0 3.4304 0 7.4752 0.6144 12.5952l0.3584 5.12c3.6864 55.7056 14.8992 225.28-108.4416 367.0528a20.48 20.48 0 0 0-3.1232 22.2208 20.48 20.48 0 0 0 34.304 4.7104c134.0416-153.6 122.5728-336.0256 118.784-395.9808z" fill="#cdcdcd" /><path d="M529.408 440.7296a20.7872 20.7872 0 1 0-41.5232 0v140.4928c0 1.1264-6.0928 114.5856-130.6624 224.9728a20.8896 20.8896 0 0 0-5.888 22.8352 20.48 20.48 0 0 0 19.4048 13.4656 20.9408 20.9408 0 0 0 13.9264-5.12c128.256-113.152 143.0016-231.3728 144.6912-254.3104z" fill="#cdcdcd" /><path d="M506.3168 233.3696A219.7504 219.7504 0 0 0 286.72 452.864c0 19.8656 1.536 38.5536 2.816 55.04l0.512 6.3488c5.9904 72.2944 8.4992 102.4-93.7984 131.4816l-4.352 1.2288a19.9168 19.9168 0 0 0-12.4928 9.728 21.1456 21.1456 0 0 0 7.7312 28.16 20.48 20.48 0 0 0 15.8208 2.1504l5.12-1.4848c133.9904-38.656 128.8192-101.7344 122.88-174.7456v-0.7168A541.44 541.44 0 0 1 327.68 452.864a178.176 178.176 0 0 1 356.352 0c0 117.3504-17.92 227.84-58.0608 358.0416a20.48 20.48 0 0 0 2.9184 18.5856 20.1216 20.1216 0 0 0 16.5376 8.3456 21.1968 21.1968 0 0 0 19.968-14.7456c41.2672-133.12 59.6992-247.5008 59.6992-370.2272a219.4944 219.4944 0 0 0-218.7776-219.4944z" fill="#cdcdcd" /><path d="M508.5184 164.608c-156.0576 3.1232-268.7488 119.6544-278.9888 273.92-1.4848 22.3232 5.12 102.7584 1.8432 111.2064a30.1056 30.1056 0 0 1-19.5072 18.5856 21.9136 21.9136 0 0 0-17.3056 19.0976 23.0912 23.0912 0 0 0 4.864 15.36 22.4768 22.4768 0 0 0 15.872 7.7824 15.36 15.36 0 0 0 7.0144 0c28.7744-5.12 43.0592-18.8928 52.0704-46.3872 2.7136-8.2944-0.6656-41.2672-0.7168-41.728a728.2176 728.2176 0 0 1-1.536-81.92c8.2432-133.12 103.5776-231.7824 237.056-234.8032s231.7312 110.4896 235.52 229.9904c4.096 127.1296-19.5584 218.9312-42.5984 336.2816a19.3024 19.3024 0 0 0 2.5088 14.848 20.48 20.48 0 0 0 12.9536 9.1136 11.52 11.52 0 0 0 4.3008 0.512c9.1136-1.3824 18.2784-5.12 20.1728-14.7968 24.4224-121.9072 47.5648-213.248 43.8784-345.9072-4.096-141.3632-121.2928-274.2784-277.4016-271.1552z" fill="#cdcdcd" /></svg>