<?xml version="1.0" standalone="no"?><!DOCTYPE svg PUBLIC "-//W3C//DTD SVG 1.1//EN" "http://www.w3.org/Graphics/SVG/1.1/DTD/svg11.dtd"><svg class="icon" width="200px" height="200.00px" viewBox="0 0 1024 1024" version="1.1" xmlns="http://www.w3.org/2000/svg"><path d="M142.848 99.84h756.288c20.864 0 37.824 19.328 37.824 43.264v172.992c0 23.872-16.96 43.2-37.76 43.2H142.784c-20.928 0-37.888-19.392-37.888-43.2V143.104c0-23.936 16.96-43.264 37.888-43.264z m23.552 57.472v143.168h709.184V157.312H166.4 166.4z m89.856 107.072a38.016 38.016 0 0 1-32.768-18.368 35.904 35.904 0 0 1 0-36.672 38.016 38.016 0 0 1 32.768-18.304 36.672 36.672 0 1 1 0 73.344zM142.848 391.68h756.288c20.864 0 37.824 19.392 37.824 43.328V608c0 23.872-16.96 43.2-37.76 43.2H142.784c-20.928 0-37.824-19.328-37.824-43.2V434.816c-0.064-23.872 16.896-43.008 37.76-43.008z m23.552 57.6v143.104h709.184v-143.36H166.4l0.064 0.192z m89.856 107.008a38.016 38.016 0 0 1-32.768-18.368 35.904 35.904 0 0 1 0-36.672 38.016 38.016 0 0 1 32.768-18.304 36.672 36.672 0 1 1 0 73.344z m-113.408 126.976h756.288c20.864 0 37.824 19.328 37.824 43.264v172.8c0 23.872-16.96 43.2-37.76 43.2H142.784c-20.928 0.192-37.888-19.2-37.888-43.2v-172.8c0-23.936 16.96-43.264 37.76-43.264h0.128z m23.552 57.472v143.168h709.184v-143.104H166.4 166.4z m89.856 107.072a38.016 38.016 0 0 1-32.768-18.368 35.904 35.904 0 0 1 0-36.672 38.016 38.016 0 0 1 32.768-18.368 36.672 36.672 0 1 1 0 73.408z" fill="#3A82F8" /></svg>