<?xml version="1.0" standalone="no"?><!DOCTYPE svg PUBLIC "-//W3C//DTD SVG 1.1//EN" "http://www.w3.org/Graphics/SVG/1.1/DTD/svg11.dtd"><svg t="1754632977444" class="icon" viewBox="0 0 1024 1024" version="1.1" xmlns="http://www.w3.org/2000/svg" p-id="10888" xmlns:xlink="http://www.w3.org/1999/xlink" width="200" height="200"><path d="M930.133333 362.666667l-149.333333-76.8 85.333333-166.4c8.533333-8.533333 12.8-17.066667 12.8-25.6s-4.266667-21.333333-12.8-29.866667c-8.533333-8.533333-17.066667-12.8-29.866666-12.8s-25.6 4.266667-34.133334 12.8l-93.866666 187.733333-128-64c-17.066667-8.533333-29.866667-12.8-42.666667-12.8-21.333333 0-38.4 8.533333-51.2 25.6v4.266667c-42.666667 89.6-115.2 170.666667-226.133333 247.466667-55.466667 38.4-106.666667 68.266667-157.866667 89.6-17.066667 8.533333-25.6 17.066667-29.866667 34.133333-4.266667 17.066667 0 34.133333 8.533334 46.933333l4.266666 4.266667 524.8 324.266667c21.333333 12.8 38.4 17.066667 51.2 17.066666 12.8 0 21.333333-4.266667 29.866667-8.533333 81.066667-76.8 149.333333-179.2 196.266667-298.666667 34.133333-85.333333 55.466667-153.6 59.733333-209.066666v-21.333334c4.266667-34.133333-4.266667-55.466667-17.066667-68.266666z m-302.933333 379.733333c8.533333-8.533333 12.8-17.066667 12.8-29.866667 0-12.8-4.266667-21.333333-12.8-29.866666-8.533333-8.533333-17.066667-12.8-29.866667-12.8-12.8 0-21.333333 4.266667-29.866666 12.8L469.333333 780.8l-136.533333-85.333333 93.866667-64c8.533333-8.533333 12.8-17.066667 17.066666-25.6 4.266667-12.8 0-21.333333-4.266666-29.866667-8.533333-8.533333-17.066667-17.066667-25.6-17.066667-12.8 0-21.333333 0-29.866667 8.533334l-115.2 76.8-4.266667 4.266666L170.666667 593.066667c106.666667-51.2 200.533333-115.2 273.066666-196.266667 187.733333 106.666667 315.733333 179.2 388.266667 213.333333-42.666667 110.933333-102.4 204.8-174.933333 281.6l-4.266667-4.266666-102.4-64 76.8-81.066667z m251.733333-302.933333c0 21.333333-8.533333 55.466667-21.333333 98.133333-68.266667-34.133333-192-102.4-362.666667-200.533333 21.333333-25.6 38.4-55.466667 55.466667-85.333334h4.266667l170.666666 85.333334 153.6 76.8 8.533334 4.266666c-8.533333 8.533333-8.533333 12.8-8.533334 21.333334z" p-id="10889" fill="#707070"></path></svg>