<?xml version="1.0" standalone="no"?><!DOCTYPE svg PUBLIC "-//W3C//DTD SVG 1.1//EN" "http://www.w3.org/Graphics/SVG/1.1/DTD/svg11.dtd"><svg t="1779959592397" class="icon" viewBox="0 0 1024 1024" version="1.1" xmlns="http://www.w3.org/2000/svg" p-id="12868" width="128" height="128" xmlns:xlink="http://www.w3.org/1999/xlink"><path d="M836.4032 33.1776H187.5968C102.7072 33.1776 33.792 102.0928 33.792 186.9824v649.9328c0 84.8896 68.9152 153.8048 153.8048 153.8048h648.8064c84.8896 0 153.8048-68.9152 153.8048-153.8048V186.9824c0-84.8896-68.9152-153.8048-153.8048-153.8048zM329.9328 923.4432h-142.336c-47.616 0-86.528-38.7072-86.528-86.528v-152.576h228.864v239.104z m0-306.3808H101.0688V379.1872h228.864v237.8752z m296.448 306.3808H397.2096V684.3392h229.1712v239.104z m0-306.3808H397.2096V379.1872h229.1712v237.8752z m296.5504 219.9552c0 47.616-38.7072 86.528-86.528 86.528H693.6576V684.3392h229.2736v152.6784z m0-219.9552H693.6576V379.1872h229.2736v237.8752z m0-305.2544H101.0688V186.9824c0-47.616 38.7072-86.528 86.528-86.528h648.8064c47.616 0 86.528 38.7072 86.528 86.528v124.8256z" p-id="12869"></path></svg>