<?xml version="1.0" standalone="no"?><!DOCTYPE svg PUBLIC "-//W3C//DTD SVG 1.1//EN" "http://www.w3.org/Graphics/SVG/1.1/DTD/svg11.dtd"><svg t="1772526588602" class="icon" viewBox="0 0 1024 1024" version="1.1" xmlns="http://www.w3.org/2000/svg" p-id="27278" width="128" height="128" xmlns:xlink="http://www.w3.org/1999/xlink"><path d="M141.626821 865.511755c24.962225-21.702306 84.966946-66.942665 278.118779-151.635229l182.326811-1.188989c193.171431 84.699097 255.168688 131.004319 280.300768 152.817685a512.003266 512.003266 0 0 1-740.739825 0z" fill="#B0BEC5" p-id="27279"></path><path d="M415.257495 538.631382v220.77295c53.177837 65.13305 140.241845 62.885732 193.419681 0V538.631382c0-119.166698-193.419682-119.166698-193.419681 0z" fill="#FFD7A3" p-id="27280"></path><path d="M415.257495 538.631382v147.839612c36.584261 26.686912 71.861941 41.614597 96.686975 41.614597s60.102715-14.927685 96.686976-41.614597v-147.839612c0.04573-119.166698-193.373951-119.166698-193.373951 0z" fill="#E9C596" p-id="27281"></path><path d="M318.773039 986.285547L306.001212 960.336853l75.833947-50.603873-92.688839-43.319685L364.921471 738.218125l50.342557-22.322932v43.6006l30.475996 260.283951a508.599624 508.599624 0 0 1-126.966985-33.494197z m289.91067-226.815886v-43.861916l41.287952 18.55998 85.215197 132.252103-92.682306 43.332751L718.338499 960.336853l-12.693432 25.759239a508.86094 508.86094 0 0 1-127.156439 33.624856z" fill="#ECEFF1" p-id="27282"></path><path d="M408.5874 718.841532l6.670095-32.370538 96.183942 120.956713-80.596434 84.882019z m102.854037 88.586175l97.242272-120.956713 8.453578 32.899704-23.668711 171.220874z" fill="#FFFFFF" p-id="27283"></path><path d="M553.526403 852.217296l-23.453125 36.264148h-36.329478l-23.387795-36.264148 41.085432-44.789589z" fill="#0D47A1" p-id="27284"></path><path d="M474.608925 1022.654222l19.187139-134.107449h36.33601l19.187139 134.113982q-18.481585 1.306581-37.322479 1.339245t-37.387809-1.345778z" fill="#A2D1FF" p-id="27285"></path><path d="M325.351673 565.644939c-4.520769-6.650496-13.392453-29.724712-21.401793-61.925395a19.487652 19.487652 0 0 1-5.42231 2.802616c-17.037813 5.618297-38.713988-13.719098-48.421882-43.202092s-3.769485-57.868462 13.27486-63.480226a27.026623 27.026623 0 0 1 25.249673 6.983674c-7.983208-120.447147 26.61505-264.549938 223.35998-264.549938 197.136904 0 231.46078 144.703818 223.275051 265.307755a27.594985 27.594985 0 0 1 26.131616-7.741491c17.044346 5.618297 22.989288 34.082159 13.27486 63.480226s-31.357938 48.82039-48.41535 43.202092a19.598711 19.598711 0 0 1-6.140929-3.357912c-8.042005 32.481597-16.98555 55.784465-21.558583 62.474158-23.355131 34.428403-134.205442 125.7192-186.566665 125.7192s-163.257265-91.225468-186.638528-125.712667z" fill="#FFD7A3" p-id="27286"></path><path d="M660.339379 273.539213c18.827829 102.854037 65.982328 93.2768 62.225909 213.965664 26.027089-190.251223 49.081706-371.317184-224.268054-380.371788a263.929312 263.929312 0 0 0-133.767737 43.731258c-79.603432 50.532011-122.015044 156.691697-65.19838 319.857501 8.656097-57.535283 7.532438-101.599719 47.102237-140.705682 41.41861-40.758787 134.577817 70.091524 313.912558-56.483486z" fill="#6D4C41" p-id="27287"></path></svg>